<svg width="89" height="73" viewBox="0 0 89 73" fill="none" xmlns="http://www.w3.org/2000/svg">
<path d="M81.2793 0H7.22071C5.30632 0.00215618 3.47096 0.7636 2.11728 2.11728C0.7636 3.47096 0.00215618 5.30632 0 7.22071V64.2458C0.00235224 66.3566 0.841885 68.3802 2.33441 69.8727C3.82693 71.3652 5.85055 72.2048 7.9613 72.2071H80.5387C82.6494 72.2048 84.6731 71.3652 86.1656 69.8727C87.6581 68.3802 88.4976 66.3566 88.5 64.2458V7.22071C88.4978 5.30632 87.7364 3.47096 86.3827 2.11728C85.029 0.7636 83.1937 0.00215618 81.2793 0ZM85.9079 7.22071V15.873H36.0206L42.3023 2.59205H81.2793C82.5065 2.59342 83.683 3.08152 84.5507 3.94927C85.4185 4.81701 85.9066 5.99354 85.9079 7.22071ZM7.22071 2.59205H39.4362L33.1531 15.873H2.59205V7.22071C2.59342 5.99354 3.08152 4.81701 3.94927 3.94927C4.81701 3.08152 5.99353 2.59342 7.22071 2.59205ZM80.5387 69.6151H7.9613C6.53777 69.6135 5.17299 69.0473 4.1664 68.0407C3.15981 67.0341 2.59362 65.6693 2.59205 64.2458V18.465H85.9079V64.2458C85.9064 65.6693 85.3402 67.0341 84.3336 68.0407C83.327 69.0473 81.9622 69.6135 80.5387 69.6151Z" fill="#CAAD91"/>
<path d="M12.8267 13.4904C13.669 13.4904 14.4923 13.2406 15.1926 12.7727C15.8928 12.3048 16.4386 11.6397 16.7609 10.8616C17.0833 10.0835 17.1676 9.22728 17.0033 8.40124C16.839 7.57519 16.4334 6.81643 15.8378 6.22088C15.2423 5.62534 14.4835 5.21977 13.6575 5.05546C12.8315 4.89115 11.9752 4.97548 11.1971 5.29778C10.419 5.62009 9.75394 6.1659 9.28602 6.86618C8.81811 7.56647 8.56836 8.38978 8.56836 9.232C8.56954 10.361 9.01856 11.4435 9.81691 12.2418C10.6152 13.0402 11.6977 13.4892 12.8267 13.4904ZM12.8267 7.56568C13.1563 7.56568 13.4785 7.66341 13.7525 7.84651C14.0265 8.02961 14.2401 8.28985 14.3662 8.59433C14.4923 8.89881 14.5253 9.23385 14.461 9.55709C14.3967 9.88032 14.238 10.1772 14.005 10.4103C13.772 10.6433 13.475 10.802 13.1518 10.8663C12.8286 10.9306 12.4935 10.8976 12.1891 10.7715C11.8846 10.6454 11.6243 10.4318 11.4412 10.1578C11.2581 9.88374 11.1604 9.56157 11.1604 9.232C11.161 8.79025 11.3367 8.36676 11.6491 8.05439C11.9615 7.74202 12.385 7.56627 12.8267 7.56568Z" fill="#CAAD91"/>
<path d="M24.7178 13.4904C25.5601 13.4904 26.3834 13.2406 27.0837 12.7727C27.784 12.3048 28.3298 11.6397 28.6521 10.8616C28.9744 10.0835 29.0587 9.22728 28.8944 8.40124C28.7301 7.57519 28.3245 6.81643 27.729 6.22088C27.1334 5.62534 26.3746 5.21977 25.5486 5.05546C24.7226 4.89115 23.8664 4.97548 23.0882 5.29778C22.3101 5.62009 21.6451 6.1659 21.1771 6.86618C20.7092 7.56647 20.4595 8.38978 20.4595 9.232C20.4606 10.361 20.9097 11.4435 21.708 12.2418C22.5064 13.0402 23.5888 13.4892 24.7178 13.4904ZM24.7178 7.56568C25.0474 7.56568 25.3696 7.66341 25.6436 7.84651C25.9176 8.02961 26.1312 8.28985 26.2573 8.59433C26.3834 8.89881 26.4164 9.23385 26.3521 9.55709C26.2878 9.88032 26.1291 10.1772 25.8961 10.4103C25.6631 10.6433 25.3662 10.802 25.0429 10.8663C24.7197 10.9306 24.3846 10.8976 24.0802 10.7715C23.7757 10.6454 23.5154 10.4318 23.3323 10.1578C23.1493 9.88374 23.0515 9.56157 23.0515 9.232C23.0521 8.79025 23.2279 8.36676 23.5402 8.05439C23.8526 7.74202 24.2761 7.56627 24.7178 7.56568Z" fill="#CAAD91"/>
<path d="M46.8585 10.5281H79.996C80.3398 10.5281 80.6694 10.3915 80.9125 10.1485C81.1555 9.90544 81.2921 9.57579 81.2921 9.23206C81.2921 8.88833 81.1555 8.55868 80.9125 8.31563C80.6694 8.07258 80.3398 7.93604 79.996 7.93604H46.8585C46.5148 7.93604 46.1851 8.07258 45.9421 8.31563C45.699 8.55868 45.5625 8.88833 45.5625 9.23206C45.5625 9.57579 45.699 9.90544 45.9421 10.1485C46.1851 10.3915 46.5148 10.5281 46.8585 10.5281Z" fill="#CAAD91"/>
<path d="M45.3454 52.5002L42.7081 50.4599C43.6033 48.3752 44.0649 46.1303 44.0649 43.8616C44.0649 41.5929 43.6033 39.348 42.7081 37.2634L45.3454 35.2238C45.4803 35.1198 45.5934 34.9902 45.6781 34.8424C45.7629 34.6946 45.8176 34.5316 45.8392 34.3626C45.8608 34.1936 45.8488 34.0221 45.804 33.8577C45.7592 33.6934 45.6823 33.5395 45.5779 33.4049L41.949 28.7185C41.7387 28.4469 41.4291 28.2699 41.0883 28.2264C40.7475 28.1829 40.4034 28.2765 40.1316 28.4867L37.49 30.53C35.7029 29.1486 33.656 28.1411 31.4712 27.5676V24.2365C31.4714 23.8933 31.3355 23.5641 31.0932 23.3211C30.8509 23.0781 30.5221 22.9412 30.1789 22.9404H24.2542C24.084 22.9403 23.9154 22.9738 23.7581 23.0389C23.6009 23.104 23.4579 23.1994 23.3376 23.3198C23.2172 23.4402 23.1218 23.5831 23.0567 23.7404C22.9916 23.8977 22.9581 24.0662 22.9582 24.2365V27.5654C20.7735 28.1391 18.7267 29.1465 16.9395 30.5277L14.2978 28.4845C14.1633 28.3803 14.0095 28.3037 13.8454 28.259C13.6812 28.2143 13.5098 28.2023 13.3411 28.2239C13.1723 28.2454 13.0094 28.3 12.8618 28.3844C12.7141 28.4689 12.5845 28.5817 12.4804 28.7163L8.85523 33.4027C8.75081 33.5373 8.67398 33.6912 8.62914 33.8555C8.5843 34.0198 8.57234 34.1914 8.59395 34.3604C8.61555 34.5294 8.67029 34.6924 8.75503 34.8402C8.83977 34.988 8.95285 35.1176 9.08777 35.2216L11.725 37.2611C10.8299 39.3458 10.3683 41.5907 10.3683 43.8594C10.3683 46.1281 10.8299 48.373 11.725 50.4576L9.08777 52.5002C8.95304 52.6042 8.84013 52.7338 8.75551 52.8815C8.67089 53.0292 8.61622 53.1922 8.59462 53.361C8.57302 53.5299 8.58492 53.7014 8.62964 53.8656C8.67436 54.0299 8.75102 54.1837 8.85523 54.3183L12.4789 59.0047C12.583 59.1394 12.7125 59.2522 12.8602 59.3367C13.0078 59.4213 13.1707 59.4759 13.3394 59.4975C13.5082 59.5191 13.6796 59.5072 13.8438 59.4626C14.0079 59.4179 14.1617 59.3414 14.2963 59.2373L16.938 57.194C18.725 58.5755 20.7719 59.583 22.9567 60.1563V63.489C22.9567 63.8327 23.0933 64.1624 23.3363 64.4054C23.5794 64.6485 23.909 64.785 24.2527 64.785H30.1774C30.5212 64.785 30.8508 64.6485 31.0939 64.4054C31.3369 64.1624 31.4735 63.8327 31.4735 63.489V60.1563C33.6583 59.5833 35.7053 58.5758 37.4922 57.194L40.1339 59.2373C40.4058 59.4473 40.7499 59.5408 41.0907 59.4972C41.4315 59.4536 41.741 59.2765 41.9513 59.0047L45.5801 54.3183C45.6842 54.1836 45.7607 54.0296 45.8053 53.8653C45.8498 53.7009 45.8615 53.5294 45.8397 53.3606C45.8179 53.1917 45.763 53.0288 45.6782 52.8812C45.5934 52.7335 45.4803 52.6041 45.3454 52.5002ZM40.6952 56.3957L38.2602 54.5131C38.0223 54.3289 37.7277 54.2333 37.427 54.2428C37.1263 54.2522 36.8382 54.3661 36.6124 54.5649C34.7172 56.2349 32.4115 57.3701 29.9323 57.8539C29.6367 57.911 29.3703 58.0692 29.1786 58.3014C28.987 58.5335 28.8822 58.8252 28.8822 59.1262V62.1937H25.5495V59.124C25.5495 58.8229 25.4446 58.5313 25.253 58.2991C25.0614 58.067 24.7949 57.9088 24.4994 57.8516C22.0203 57.368 19.7148 56.2328 17.82 54.5627C17.5941 54.3639 17.3059 54.2499 17.0051 54.2405C16.7042 54.231 16.4095 54.3266 16.1715 54.5109L13.7379 56.3957L11.6991 53.7599L14.1304 51.8788C14.3686 51.6947 14.5353 51.4333 14.6018 51.1396C14.6683 50.846 14.6305 50.5383 14.4948 50.2695C13.4865 48.2846 12.9611 46.0898 12.9611 43.8635C12.9611 41.6372 13.4865 39.4423 14.4948 37.4574C14.6305 37.1886 14.6683 36.8809 14.6018 36.5873C14.5353 36.2936 14.3686 36.0323 14.1304 35.8481L11.6991 33.9678L13.7379 31.3313L16.1722 33.2153C16.4103 33.3994 16.705 33.4949 17.0058 33.4855C17.3066 33.476 17.5947 33.3622 17.8208 33.1635C19.7155 31.4931 22.021 30.3576 24.5001 29.8738C24.7957 29.8167 25.0621 29.6585 25.2538 29.4263C25.4454 29.1941 25.5502 28.9025 25.5503 28.6015V25.5325H28.8829V28.5992C28.8829 28.9003 28.9878 29.1919 29.1794 29.4241C29.371 29.6562 29.6375 29.8145 29.933 29.8716C32.4123 30.3557 34.718 31.4911 36.6131 33.1613C36.839 33.3599 37.127 33.4737 37.4277 33.4832C37.7284 33.4926 38.023 33.3971 38.2609 33.2131L40.6952 31.3298L42.7341 33.9663L40.3027 35.8466C40.0645 36.0308 39.8978 36.2921 39.8314 36.5858C39.7649 36.8794 39.8027 37.1871 39.9384 37.4559C40.9466 39.4408 41.4721 41.6357 41.4721 43.862C41.4721 46.0883 40.9466 48.2831 39.9384 50.268C39.8027 50.5368 39.7649 50.8445 39.8314 51.1382C39.8978 51.4318 40.0645 51.6932 40.3027 51.8773L42.7341 53.7584L40.6952 56.3957Z" fill="#CAAD91"/>
<path d="M27.2168 33.6885C25.2027 33.6885 23.2339 34.2857 21.5593 35.4046C19.8848 36.5236 18.5796 38.1139 17.8088 39.9746C17.0381 41.8354 16.8364 43.8828 17.2294 45.8581C17.6223 47.8335 18.5921 49.6479 20.0162 51.072C21.4404 52.4962 23.2548 53.466 25.2301 53.8589C27.2055 54.2518 29.2529 54.0502 31.1136 53.2794C32.9743 52.5087 34.5647 51.2035 35.6837 49.5289C36.8026 47.8543 37.3998 45.8855 37.3998 43.8715C37.3967 41.1718 36.3228 38.5835 34.4138 36.6745C32.5048 34.7655 29.9165 33.6916 27.2168 33.6885ZM27.2168 51.4625C25.7154 51.4625 24.2477 51.0173 22.9994 50.1832C21.7511 49.3491 20.7781 48.1636 20.2036 46.7765C19.629 45.3894 19.4787 43.8631 19.7716 42.3906C20.0645 40.9181 20.7875 39.5655 21.8491 38.5039C22.9107 37.4423 24.2633 36.7193 25.7358 36.4264C27.2083 36.1335 28.7346 36.2838 30.1217 36.8584C31.5088 37.4329 32.6943 38.4059 33.5284 39.6542C34.3626 40.9025 34.8078 42.3702 34.8078 43.8715C34.8056 45.8841 34.0051 47.8137 32.582 49.2368C31.1589 50.6599 29.2293 51.4604 27.2168 51.4625Z" fill="#CAAD91"/>
<path d="M79.3604 29.8003H54.921C54.5773 29.8003 54.2477 29.9368 54.0046 30.1799C53.7615 30.4229 53.625 30.7526 53.625 31.0963C53.625 31.44 53.7615 31.7697 54.0046 32.0127C54.2477 32.2558 54.5773 32.3923 54.921 32.3923H79.3604C79.7041 32.3923 80.0337 32.2558 80.2768 32.0127C80.5198 31.7697 80.6564 31.44 80.6564 31.0963C80.6564 30.7526 80.5198 30.4229 80.2768 30.1799C80.0337 29.9368 79.7041 29.8003 79.3604 29.8003Z" fill="#CAAD91"/>
<path d="M79.3604 38.3169H54.921C54.5773 38.3169 54.2477 38.4534 54.0046 38.6965C53.7615 38.9395 53.625 39.2692 53.625 39.6129C53.625 39.9566 53.7615 40.2863 54.0046 40.5294C54.2477 40.7724 54.5773 40.9089 54.921 40.9089H79.3604C79.7041 40.9089 80.0337 40.7724 80.2768 40.5294C80.5198 40.2863 80.6564 39.9566 80.6564 39.6129C80.6564 39.2692 80.5198 38.9395 80.2768 38.6965C80.0337 38.4534 79.7041 38.3169 79.3604 38.3169Z" fill="#CAAD91"/>
<path d="M79.3604 46.8335H54.921C54.5773 46.8335 54.2477 46.97 54.0046 47.2131C53.7615 47.4561 53.625 47.7858 53.625 48.1295C53.625 48.4732 53.7615 48.8029 54.0046 49.046C54.2477 49.289 54.5773 49.4255 54.921 49.4255H79.3604C79.7041 49.4255 80.0337 49.289 80.2768 49.046C80.5198 48.8029 80.6564 48.4732 80.6564 48.1295C80.6564 47.7858 80.5198 47.4561 80.2768 47.2131C80.0337 46.97 79.7041 46.8335 79.3604 46.8335Z" fill="#CAAD91"/>
<path d="M79.3604 55.3506H54.921C54.5773 55.3506 54.2477 55.4871 54.0046 55.7302C53.7615 55.9732 53.625 56.3029 53.625 56.6466C53.625 56.9903 53.7615 57.32 54.0046 57.563C54.2477 57.8061 54.5773 57.9426 54.921 57.9426H79.3604C79.7041 57.9426 80.0337 57.8061 80.2768 57.563C80.5198 57.32 80.6564 56.9903 80.6564 56.6466C80.6564 56.3029 80.5198 55.9732 80.2768 55.7302C80.0337 55.4871 79.7041 55.3506 79.3604 55.3506Z" fill="#CAAD91"/>
</svg>
