<svg width="103" height="73" viewBox="0 0 103 73" fill="none" xmlns="http://www.w3.org/2000/svg">
<path d="M8.1408 48.6783C10.0754 48.6783 11.9307 47.9121 13.2987 46.5483C14.6667 45.1844 15.4352 43.3347 15.4352 41.4059C15.4358 40.0988 15.0783 38.8164 14.4012 37.6971C13.7242 36.5778 12.7533 35.6641 11.5935 35.0547L21.8543 14.7406H22.7296H23.3618L43.6402 59.2959C42.4943 59.8988 41.5302 60.7951 40.847 61.8926C40.1637 62.9901 39.786 64.2492 39.7527 65.5404C39.7193 66.8317 40.0316 68.1086 40.6572 69.2396C41.2829 70.3707 42.1995 71.3153 43.3127 71.9761C44.4259 72.637 45.6956 72.9903 46.9911 72.9998C48.2867 73.0093 49.5615 72.6746 50.6843 72.03C51.8071 71.3855 52.7374 70.4545 53.3797 69.3327C54.022 68.2109 54.3529 66.9388 54.3386 65.6471C54.3392 64.3401 53.9817 63.0576 53.3046 61.9383C52.6276 60.819 51.6567 59.9053 50.4969 59.2959L60.7577 38.9818H61.633C63.5426 38.9822 65.3762 38.236 66.74 36.9035C68.1039 35.5709 68.8892 33.7583 68.9274 31.8549L89.1085 25.1158C89.6664 26.2947 90.5317 27.3024 91.6141 28.0335C92.6965 28.7646 93.956 29.1923 95.261 29.2717C96.566 29.3512 97.8684 29.0795 99.0319 28.4851C100.196 27.8907 101.177 26.9954 101.875 25.893C102.573 24.7906 102.96 23.5215 102.997 22.2186C103.034 20.9157 102.719 19.6268 102.085 18.4868C101.451 17.3468 100.522 16.3976 99.3937 15.7386C98.2658 15.0795 96.9809 14.7348 95.6735 14.7406C94.0615 14.7417 92.4954 15.2752 91.2197 16.2576C89.944 17.24 89.0306 18.616 88.6222 20.1706L67.3713 27.2491C66.7326 26.5296 65.9581 25.9426 65.092 25.5216C64.2258 25.1005 63.285 24.8537 62.3232 24.7952C61.3613 24.7366 60.3974 24.8676 59.4863 25.1805C58.5752 25.4934 57.7348 25.9821 57.0132 26.6188C56.2916 27.2555 55.7028 28.0276 55.2805 28.8911C54.8582 29.7547 54.6106 30.6927 54.5519 31.6516C54.4932 32.6106 54.6245 33.5716 54.9384 34.48C55.2522 35.3883 55.7424 36.2261 56.381 36.9455L47.1415 55.3689L27.6898 12.8983C28.4312 12.2008 29.0209 11.359 29.4225 10.4249C29.824 9.49083 30.0287 8.48445 30.024 7.46822C30.0563 6.27024 29.7913 5.08286 29.2523 4.01166C28.7133 2.94046 27.9172 2.01865 26.9347 1.32822C25.9522 0.637783 24.8138 0.20012 23.6207 0.0541498C22.4276 -0.0918203 21.2168 0.0584275 20.096 0.491533C18.9752 0.924638 17.9792 1.62718 17.1964 2.53667C16.4137 3.44616 15.8685 4.53441 15.6093 5.70464C15.3502 6.87488 15.3852 8.09082 15.7111 9.24433C16.0371 10.3978 16.6439 11.4532 17.4776 12.3165L6.53603 34.1336C4.60144 34.3457 2.83062 35.3154 1.61313 36.8292C0.395643 38.3431 -0.168782 40.2771 0.0440234 42.2059C0.256829 44.1346 1.22943 45.9001 2.74787 47.1139C4.26631 48.3277 6.2062 48.8905 8.1408 48.6783ZM47.0442 68.0713C46.5633 68.0713 46.0932 67.9291 45.6934 67.6627C45.2935 67.3964 44.9819 67.0178 44.7978 66.5748C44.6138 66.1319 44.5657 65.6445 44.6595 65.1742C44.7533 64.704 44.9849 64.272 45.3249 63.933C45.665 63.594 46.0982 63.3631 46.5699 63.2696C47.0415 63.1761 47.5304 63.2241 47.9747 63.4076C48.419 63.591 48.7987 63.9017 49.0659 64.3004C49.3331 64.699 49.4757 65.1677 49.4757 65.6471C49.4757 66.2901 49.2195 66.9066 48.7635 67.3613C48.3075 67.8159 47.6891 68.0713 47.0442 68.0713ZM95.6735 19.5888C96.1544 19.5888 96.6245 19.731 97.0243 19.9974C97.4242 20.2637 97.7358 20.6423 97.9199 21.0853C98.1039 21.5282 98.152 22.0156 98.0582 22.4859C97.9644 22.9561 97.7328 23.388 97.3928 23.7271C97.0527 24.0661 96.6195 24.297 96.1478 24.3905C95.6762 24.484 95.1873 24.436 94.743 24.2525C94.2987 24.0691 93.919 23.7584 93.6518 23.3597C93.3846 22.9611 93.242 22.4924 93.242 22.0129C93.242 21.37 93.4982 20.7534 93.9542 20.2988C94.4102 19.8442 95.0286 19.5888 95.6735 19.5888ZM61.633 29.2853C62.1139 29.2853 62.584 29.4275 62.9838 29.6939C63.3837 29.9602 63.6953 30.3388 63.8794 30.7818C64.0634 31.2247 64.1116 31.7121 64.0177 32.1824C63.9239 32.6526 63.6923 33.0845 63.3523 33.4236C63.0123 33.7626 62.579 33.9934 62.1074 34.087C61.6357 34.1805 61.1468 34.1325 60.7025 33.949C60.2582 33.7656 59.8785 33.4549 59.6113 33.0562C59.3441 32.6576 59.2015 32.1889 59.2015 31.7094C59.2015 31.0665 59.4577 30.4499 59.9137 29.9953C60.3697 29.5407 60.9881 29.2853 61.633 29.2853ZM22.7296 5.0441C23.2105 5.0441 23.6806 5.18627 24.0804 5.45264C24.4803 5.719 24.7919 6.0976 24.976 6.54055C25.16 6.9835 25.2081 7.47091 25.1143 7.94114C25.0205 8.41137 24.7889 8.84331 24.4489 9.18233C24.1088 9.52135 23.6756 9.75223 23.2039 9.84576C22.7323 9.9393 22.2434 9.89129 21.7991 9.70782C21.3548 9.52434 20.9751 9.21363 20.7079 8.81499C20.4407 8.41634 20.2981 7.94766 20.2981 7.46822C20.2981 6.8253 20.5543 6.20872 21.0103 5.75411C21.4663 5.2995 22.0847 5.0441 22.7296 5.0441ZM8.1408 38.9818C8.62169 38.9818 9.09179 39.124 9.49165 39.3903C9.8915 39.6567 10.2031 40.0353 10.3872 40.4783C10.5712 40.9212 10.6194 41.4086 10.5255 41.8788C10.4317 42.3491 10.2001 42.781 9.8601 43.12C9.52005 43.4591 9.08681 43.6899 8.61515 43.7835C8.14349 43.877 7.65461 43.829 7.21032 43.6455C6.76602 43.462 6.38628 43.1513 6.11911 42.7527C5.85194 42.3541 5.70933 41.8854 5.70933 41.4059C5.70933 40.763 5.9655 40.1464 6.42149 39.6918C6.87748 39.2372 7.49593 38.9818 8.1408 38.9818Z" fill="#CAAD91"/>
</svg>
