<svg width="84" height="85" viewBox="0 0 84 85" fill="none" xmlns="http://www.w3.org/2000/svg">
<path d="M57.75 31.5V5.25C57.75 3.85761 57.1969 2.52226 56.2123 1.53769C55.2277 0.553123 53.8924 0 52.5 0L5.25 0C3.85761 0 2.52226 0.553123 1.53769 1.53769C0.553123 2.52226 0 3.85761 0 5.25L0 70C0 71.3924 0.553123 72.7277 1.53769 73.7123C2.52226 74.6969 3.85761 75.25 5.25 75.25H35V82.25C34.9848 82.5356 35.0399 82.8205 35.1603 83.0798C35.2807 83.3392 35.4629 83.5651 35.6908 83.7378C35.9187 83.9104 36.1855 84.0246 36.4678 84.0703C36.75 84.1161 37.0392 84.0919 37.31 84L42 82.425C46.9875 84.175 47.3375 84.4375 48.265 83.755C49.1925 83.0725 49 81.9875 49 75.25H52.5C53.8924 75.25 55.2277 74.6969 56.2123 73.7123C57.1969 72.7277 57.75 71.3924 57.75 70V45.5C58.6783 45.5 59.5685 45.1313 60.2249 44.4749C60.8813 43.8185 61.25 42.9283 61.25 42V35C61.25 34.0717 60.8813 33.1815 60.2249 32.5251C59.5685 31.8687 58.6783 31.5 57.75 31.5ZM3.5 70V5.25C3.5 4.78587 3.68437 4.34075 4.01256 4.01256C4.34075 3.68437 4.78587 3.5 5.25 3.5H8.75V71.75H5.25C4.78587 71.75 4.34075 71.5656 4.01256 71.2374C3.68437 70.9092 3.5 70.4641 3.5 70ZM45.5 79.8175C41.2475 78.4 42.805 78.3825 38.5 79.8175V75.25H45.5V79.8175ZM54.25 70C54.25 70.4641 54.0656 70.9092 53.7374 71.2374C53.4092 71.5656 52.9641 71.75 52.5 71.75H12.25V3.5H52.5C52.9641 3.5 53.4092 3.68437 53.7374 4.01256C54.0656 4.34075 54.25 4.78587 54.25 5.25V31.5H49C47.1435 31.5 45.363 32.2375 44.0503 33.5503C42.7375 34.863 42 36.6435 42 38.5C42 40.3565 42.7375 42.137 44.0503 43.4497C45.363 44.7625 47.1435 45.5 49 45.5H54.25V70ZM49 42C48.0717 42 47.1815 41.6313 46.5251 40.9749C45.8687 40.3185 45.5 39.4283 45.5 38.5C45.5 37.5717 45.8687 36.6815 46.5251 36.0251C47.1815 35.3687 48.0717 35 49 35H57.75V42H49Z" fill="#CAAD91"/>
<path d="M50.2426 37.2575C49.9973 37.0142 49.6855 36.8489 49.3464 36.7826C49.0073 36.7162 48.6562 36.7517 48.3372 36.8846C48.0183 37.0175 47.7458 37.2418 47.5542 37.5292C47.3625 37.8167 47.2603 38.1545 47.2603 38.5C47.2603 38.8455 47.3625 39.1833 47.5542 39.4708C47.7458 39.7582 48.0183 39.9825 48.3372 40.1154C48.6562 40.2483 49.0073 40.2838 49.3464 40.2174C49.6855 40.1511 49.9973 39.9858 50.2426 39.7425C50.4066 39.5798 50.5368 39.3863 50.6257 39.173C50.7145 38.9598 50.7603 38.731 50.7603 38.5C50.7603 38.269 50.7145 38.0402 50.6257 37.827C50.5368 37.6137 50.4066 37.4202 50.2426 37.2575Z" fill="#CAAD91"/>
<path d="M22.75 28H43.75C44.2141 28 44.6592 27.8156 44.9874 27.4874C45.3156 27.1592 45.5 26.7141 45.5 26.25V14C45.5 13.5359 45.3156 13.0908 44.9874 12.7626C44.6592 12.4344 44.2141 12.25 43.75 12.25H22.75C22.2859 12.25 21.8408 12.4344 21.5126 12.7626C21.1844 13.0908 21 13.5359 21 14V26.25C21 26.7141 21.1844 27.1592 21.5126 27.4874C21.8408 27.8156 22.2859 28 22.75 28ZM24.5 15.75H42V24.5H24.5V15.75Z" fill="#CAAD91"/>
<path d="M43.75 50.75H22.75C22.2859 50.75 21.8408 50.9344 21.5126 51.2626C21.1844 51.5908 21 52.0359 21 52.5C21 52.9641 21.1844 53.4092 21.5126 53.7374C21.8408 54.0656 22.2859 54.25 22.75 54.25H43.75C44.2141 54.25 44.6592 54.0656 44.9874 53.7374C45.3156 53.4092 45.5 52.9641 45.5 52.5C45.5 52.0359 45.3156 51.5908 44.9874 51.2626C44.6592 50.9344 44.2141 50.75 43.75 50.75Z" fill="#CAAD91"/>
<path d="M43.75 57.75H22.75C22.2859 57.75 21.8408 57.9344 21.5126 58.2626C21.1844 58.5908 21 59.0359 21 59.5C21 59.9641 21.1844 60.4092 21.5126 60.7374C21.8408 61.0656 22.2859 61.25 22.75 61.25H43.75C44.2141 61.25 44.6592 61.0656 44.9874 60.7374C45.3156 60.4092 45.5 59.9641 45.5 59.5C45.5 59.0359 45.3156 58.5908 44.9874 58.2626C44.6592 57.9344 44.2141 57.75 43.75 57.75Z" fill="#CAAD91"/>
<path d="M78.75 17.5C78.75 15.75 79.03 14 77 12.74V8.75C77 7.35761 76.4469 6.02226 75.4623 5.03769C74.4777 4.05312 73.1424 3.5 71.75 3.5C70.3576 3.5 69.0223 4.05312 68.0377 5.03769C67.0531 6.02226 66.5 7.35761 66.5 8.75V12.74C65.971 13.0454 65.5312 13.4839 65.2242 14.012C64.9172 14.54 64.7537 15.1392 64.75 15.75V57.5575C64.75 60.7775 66.08 62.195 70 68.74V71.75C70 72.2141 70.1844 72.6592 70.5126 72.9874C70.8408 73.3156 71.2859 73.5 71.75 73.5C72.2141 73.5 72.6592 73.3156 72.9874 72.9874C73.3156 72.6592 73.5 72.2141 73.5 71.75V68.74C77.77 61.6175 78.75 60.62 78.75 57.5575V21C79.2141 21 79.6592 21.1844 79.9874 21.5126C80.3156 21.8408 80.5 22.2859 80.5 22.75V38.5C80.5 38.9641 80.6844 39.4092 81.0126 39.7374C81.3408 40.0656 81.7859 40.25 82.25 40.25C82.7141 40.25 83.1592 40.0656 83.4874 39.7374C83.8156 39.4092 84 38.9641 84 38.5V22.75C84 21.3576 83.4469 20.0223 82.4623 19.0377C81.4777 18.0531 80.1424 17.5 78.75 17.5ZM68.25 15.75H75.25V42H68.25V15.75ZM70 8.75C70 8.28587 70.1844 7.84075 70.5126 7.51256C70.8408 7.18437 71.2859 7 71.75 7C72.2141 7 72.6592 7.18437 72.9874 7.51256C73.3156 7.84075 73.5 8.28587 73.5 8.75V12.25H70V8.75ZM71.75 64.855C67.3925 57.5925 68.25 61.075 68.25 45.5H75.25C75.25 61.25 76.1075 57.575 71.75 64.855Z" fill="#CAAD91"/>
</svg>
