<svg width="86" height="86" viewBox="0 0 86 86" fill="none" xmlns="http://www.w3.org/2000/svg">
<path d="M78.5457 69.0344C80.5418 67.5128 81.8387 65.1173 81.8387 62.4194C81.8387 58.3038 78.8329 54.886 74.9032 54.2216V52.7097C74.9032 48.8855 71.792 45.7742 67.9677 45.7742H44.3871V40.7196C45.1361 41.2897 46.0364 41.6129 46.9935 41.6129C49.3293 41.6129 51.2255 39.7514 51.3073 37.4364C53.5711 37.3559 55.3882 35.5388 55.4686 33.2751C57.7324 33.1946 59.5494 31.3775 59.6299 29.1138C61.945 29.0319 63.8065 27.1344 63.8065 24.7999C63.8065 23.6431 63.3556 22.5556 62.5386 21.7386L62.2501 21.4501C64.156 19.1114 65.1935 16.2152 65.1935 13.1566C65.1935 5.9021 59.2915 0 52.0369 0C48.6427 0 45.4538 1.28723 43 3.612C40.5462 1.28723 37.3573 0 33.9631 0C26.7085 0 20.8065 5.9021 20.8065 13.1566C20.8065 16.5647 22.1034 19.7675 24.4476 22.2255C23.8941 22.9689 23.5806 23.8567 23.5806 24.7999C23.5806 27.1358 25.4421 29.0319 27.7572 29.1138C27.8376 31.3775 29.6547 33.1946 31.9185 33.2751C31.9989 35.5388 33.816 37.3559 36.0798 37.4364C36.1616 39.7514 38.0592 41.6129 40.3936 41.6129C40.8153 41.6129 41.2204 41.5338 41.6129 41.4187V45.7742H18.0323C14.208 45.7742 11.0968 48.8855 11.0968 52.7097V54.2216C7.16713 54.886 4.16129 58.3038 4.16129 62.4194C4.16129 65.1173 5.45823 67.5128 7.45426 69.0344C3.07103 70.9736 0 75.3582 0 80.4516V86H24.9677V80.4516C24.9677 75.3582 21.8967 70.9736 17.5135 69.0344C19.5095 67.5128 20.8065 65.1173 20.8065 62.4194C20.8065 58.3038 17.8006 54.886 13.871 54.2216V52.7097C13.871 50.4154 15.738 48.5484 18.0323 48.5484H41.6129V54.2216C37.6833 54.8846 34.6774 58.3025 34.6774 62.4194C34.6774 65.1173 35.9744 67.5128 37.9704 69.0344C33.5872 70.9736 30.5161 75.3582 30.5161 80.4516V86H55.4839V80.4516C55.4839 75.3582 52.4128 70.9736 48.0296 69.0344C50.0256 67.5128 51.3226 65.1173 51.3226 62.4194C51.3226 58.3038 48.3167 54.886 44.3871 54.2216V48.5484H67.9677C70.262 48.5484 72.129 50.4154 72.129 52.7097V54.2216C68.1994 54.8846 65.1935 58.3025 65.1935 62.4194C65.1935 65.1173 66.4905 67.5128 68.4865 69.0344C64.1033 70.9736 61.0323 75.3582 61.0323 80.4516V86H86V80.4516C86 75.3582 82.929 70.9736 78.5457 69.0344ZM52.0369 2.77419C57.7615 2.77419 62.4194 7.43206 62.4194 13.1566C62.4194 15.4717 61.6578 17.6647 60.2694 19.4679L53.8915 13.09C54.3048 12.7793 54.7057 12.4492 55.0788 12.0775L53.1175 10.1161C51.5889 11.6433 49.5596 12.4839 47.3985 12.4839H45.1999L42.8322 14.8516C42.57 15.1138 42.2205 15.2581 41.8501 15.2581H36.6388C36.3225 15.2581 36.0645 15.0001 36.0645 14.6838C36.0645 14.5326 36.1255 14.3842 36.2324 14.2774L44.695 5.81471C46.6564 3.85474 49.2627 2.77419 52.0369 2.77419ZM33.9631 2.77419C36.6096 2.77419 39.0981 3.76735 41.0248 5.56087L34.2696 12.316C33.6385 12.9472 33.2903 13.7891 33.2903 14.6838C33.2903 16.53 34.7925 18.0323 36.6388 18.0323H41.8501C42.9612 18.0323 44.007 17.5995 44.7935 16.813L46.3485 15.2581H47.3985C48.7842 15.2581 50.1269 14.9931 51.3781 14.5007L60.5773 23.6999C60.87 23.994 61.0323 24.3838 61.0323 24.7999C61.0323 25.6571 60.3346 26.3548 59.4773 26.3548C59.0612 26.3548 58.6714 26.1925 58.3774 25.8999L55.0775 22.6L53.1161 24.5613L56.416 27.8612C56.7087 28.1553 56.871 28.5451 56.871 28.9612C56.871 29.8184 56.1733 30.5161 55.316 30.5161C54.8999 30.5161 54.5101 30.3538 54.2161 30.0612L50.9162 26.7613L48.9548 28.7226L52.2547 32.0225C52.5474 32.3166 52.7097 32.7064 52.7097 33.1225C52.7097 33.9797 52.012 34.6774 51.1547 34.6774C50.7386 34.6774 50.3488 34.5151 50.0548 34.2225L46.7549 30.9225L44.7935 32.8839L48.0934 36.1838C48.3861 36.4779 48.5484 36.8676 48.5484 37.2838C48.5484 38.141 47.8507 38.8387 46.9935 38.8387C46.5773 38.8387 46.1875 38.6764 45.8935 38.3837L45.4302 37.9205C45.6535 37.3934 45.7742 36.8233 45.7742 36.2324C45.7742 33.8965 43.9127 32.0003 41.5976 31.9185C41.5172 29.6547 39.7001 27.8376 37.4364 27.7572C37.3559 25.4935 35.5388 23.6764 33.2751 23.5959C33.1932 21.2808 31.2957 19.4194 28.9612 19.4194C28.0277 19.4194 27.1483 19.7245 26.4117 20.2669C24.5891 18.3333 23.5806 15.8254 23.5806 13.1566C23.5806 7.43206 28.2385 2.77419 33.9631 2.77419ZM26.3548 24.7999C26.3548 24.3838 26.5171 23.994 26.8098 23.6999L27.8612 22.6485C28.1553 22.3558 28.5451 22.1935 28.9612 22.1935C29.8184 22.1935 30.5161 22.8913 30.5161 23.7485C30.5161 24.1646 30.3538 24.5544 30.0612 24.8485L29.0097 25.8999C28.7157 26.1925 28.3259 26.3548 27.9098 26.3548C27.0525 26.3548 26.3548 25.6571 26.3548 24.7999ZM30.5161 28.9612C30.5161 28.5451 30.6784 28.1553 30.9711 27.8612L32.0225 26.8098C32.3166 26.5171 32.7064 26.3548 33.1225 26.3548C33.9797 26.3548 34.6774 27.0525 34.6774 27.9098C34.6774 28.3259 34.5151 28.7157 34.2225 29.0097L33.171 30.0612C32.877 30.3538 32.4872 30.5161 32.0711 30.5161C31.2138 30.5161 30.5161 29.8184 30.5161 28.9612ZM34.6774 33.1225C34.6774 32.7064 34.8397 32.3166 35.1324 32.0225L36.1838 30.9711C36.4779 30.6784 36.8676 30.5161 37.2838 30.5161C38.141 30.5161 38.8387 31.2138 38.8387 32.0711C38.8387 32.4872 38.6764 32.877 38.3837 33.171L37.3323 34.2225C37.0383 34.5151 36.6485 34.6774 36.2324 34.6774C35.3751 34.6774 34.6774 33.9797 34.6774 33.1225ZM40.3936 38.8387C39.5364 38.8387 38.8387 38.141 38.8387 37.2838C38.8387 36.8676 39.001 36.4779 39.2937 36.1838L40.3451 35.1324C40.6392 34.8397 41.0289 34.6774 41.4451 34.6774C42.3023 34.6774 43 35.3751 43 36.2324C43 36.6485 42.8377 37.0383 42.545 37.3323L41.4936 38.3837C41.1995 38.6764 40.8098 38.8387 40.3936 38.8387ZM22.1935 80.4516V83.2258H19.4194V77.6774H16.6452V83.2258H8.32258V77.6774H5.54839V83.2258H2.77419V80.4516C2.77419 75.0974 7.12968 70.7419 12.4839 70.7419C17.8381 70.7419 22.1935 75.0974 22.1935 80.4516ZM18.0323 62.4194C18.0323 65.4793 15.5438 67.9677 12.4839 67.9677C9.42394 67.9677 6.93548 65.4793 6.93548 62.4194C6.93548 59.3594 9.42394 56.871 12.4839 56.871C15.5438 56.871 18.0323 59.3594 18.0323 62.4194ZM52.7097 80.4516V83.2258H49.9355V77.6774H47.1613V83.2258H38.8387V77.6774H36.0645V83.2258H33.2903V80.4516C33.2903 75.0974 37.6458 70.7419 43 70.7419C48.3542 70.7419 52.7097 75.0974 52.7097 80.4516ZM48.5484 62.4194C48.5484 65.4793 46.0599 67.9677 43 67.9677C39.9401 67.9677 37.4516 65.4793 37.4516 62.4194C37.4516 59.3594 39.9401 56.871 43 56.871C46.0599 56.871 48.5484 59.3594 48.5484 62.4194ZM67.9677 62.4194C67.9677 59.3594 70.4562 56.871 73.5161 56.871C76.5761 56.871 79.0645 59.3594 79.0645 62.4194C79.0645 65.4793 76.5761 67.9677 73.5161 67.9677C70.4562 67.9677 67.9677 65.4793 67.9677 62.4194ZM83.2258 83.2258H80.4516V77.6774H77.6774V83.2258H69.3548V77.6774H66.5806V83.2258H63.8065V80.4516C63.8065 75.0974 68.1619 70.7419 73.5161 70.7419C78.8703 70.7419 83.2258 75.0974 83.2258 80.4516V83.2258Z" fill="#CAAD91"/>
<path d="M54.0969 51.3228H51.3228V54.0969H54.0969V51.3228Z" fill="#CAAD91"/>
<path d="M59.6453 51.3228H56.8711V54.0969H59.6453V51.3228Z" fill="#CAAD91"/>
<path d="M65.1936 51.3228H62.4194V54.0969H65.1936V51.3228Z" fill="#CAAD91"/>
<path d="M23.5803 51.3228H20.8062V54.0969H23.5803V51.3228Z" fill="#CAAD91"/>
<path d="M29.1292 51.3228H26.355V54.0969H29.1292V51.3228Z" fill="#CAAD91"/>
<path d="M34.6775 51.3228H31.9033V54.0969H34.6775V51.3228Z" fill="#CAAD91"/>
</svg>
