<svg width="60" height="56" viewBox="0 0 60 56" fill="none" xmlns="http://www.w3.org/2000/svg">
<path d="M59 48.0001H58V12.0001C58 10.9392 57.5786 9.92179 56.8284 9.17165C56.0783 8.4215 55.0609 8.00007 54 8.00007H45V1.00007C45 0.853156 44.9676 0.708041 44.9052 0.575049C44.8428 0.442057 44.7518 0.324456 44.6388 0.230608C44.5257 0.136761 44.3934 0.0689731 44.2512 0.0320665C44.109 -0.0048401 43.9604 -0.00995899 43.816 0.0170738L37.816 1.14207L36.816 1.33007L27.907 3.00007H22C21.4696 3.00007 20.9609 3.21079 20.5858 3.58586C20.2107 3.96093 20 4.46964 20 5.00007C19.0282 5.00135 18.0779 5.28578 17.2652 5.81857C16.4525 6.35137 15.8127 7.10943 15.424 8.00007H6C4.93913 8.00007 3.92172 8.4215 3.17157 9.17165C2.42143 9.92179 2 10.9392 2 12.0001V48.0001H1C0.734784 48.0001 0.48043 48.1054 0.292893 48.293C0.105357 48.4805 0 48.7349 0 49.0001V52.0001C0 53.0609 0.421427 54.0784 1.17157 54.8285C1.92172 55.5786 2.93913 56.0001 4 56.0001H56C57.0609 56.0001 58.0783 55.5786 58.8284 54.8285C59.5786 54.0784 60 53.0609 60 52.0001V49.0001C60 48.7349 59.8946 48.4805 59.7071 48.293C59.5196 48.1054 59.2652 48.0001 59 48.0001ZM43 2.20507V17.8001L29 15.1701V4.83007L43 2.20507ZM27 23.0001H24V17.0001H27V23.0001ZM24 25.0001H27V26.5001C27 26.8979 26.842 27.2794 26.5607 27.5607C26.2794 27.842 25.8978 28.0001 25.5 28.0001C25.1022 28.0001 24.7206 27.842 24.4393 27.5607C24.158 27.2794 24 26.8979 24 26.5001V25.0001ZM29 17.2001L31 17.5751V19.0001H29V17.2001ZM22 5.00007H27V15.0001H22V5.00007ZM20 7.00007V13.0001C19.2044 13.0001 18.4413 12.684 17.8787 12.1214C17.3161 11.5588 17 10.7957 17 10.0001C17 9.20442 17.3161 8.44136 17.8787 7.87875C18.4413 7.31614 19.2044 7.00007 20 7.00007ZM4 12.0001C4 11.4696 4.21071 10.9609 4.58579 10.5859C4.96086 10.2108 5.46957 10.0001 6 10.0001H15C15.0016 11.3257 15.5289 12.5965 16.4662 13.5339C17.4036 14.4712 18.6744 14.9985 20 15.0001C20 15.5305 20.2107 16.0392 20.5858 16.4143C20.9609 16.7894 21.4696 17.0001 22 17.0001V26.5001C22 27.4283 22.3687 28.3186 23.0251 28.9749C23.6815 29.6313 24.5717 30.0001 25.5 30.0001C26.4283 30.0001 27.3185 29.6313 27.9749 28.9749C28.6313 28.3186 29 27.4283 29 26.5001V21.0001H32C32.2652 21.0001 32.5196 20.8947 32.7071 20.7072C32.8946 20.5196 33 20.2653 33 20.0001V17.9551L43.816 19.9831C43.8767 19.9942 43.9383 19.9999 44 20.0001C44.2652 20.0001 44.5196 19.8947 44.7071 19.7072C44.8946 19.5196 45 19.2653 45 19.0001V10.0001H54C54.5304 10.0001 55.0391 10.2108 55.4142 10.5859C55.7893 10.9609 56 11.4696 56 12.0001V48.0001H39C38.7349 47.9999 38.4807 48.1049 38.293 48.2921L36.586 50.0001H23.414L21.707 48.2921C21.5193 48.1049 21.2651 47.9999 21 48.0001H4V12.0001ZM58 52.0001C58 52.5305 57.7893 53.0392 57.4142 53.4143C57.0391 53.7894 56.5304 54.0001 56 54.0001H4C3.46957 54.0001 2.96086 53.7894 2.58579 53.4143C2.21071 53.0392 2 52.5305 2 52.0001V50.0001H20.586L22.293 51.7071C22.4805 51.8946 22.7348 52 23 52.0001H37C37.2652 52 37.5195 51.8946 37.707 51.7071L39.414 50.0001H58V52.0001Z" fill="#CAAD91"/>
<path d="M53 43V14C53 13.7348 52.8946 13.4804 52.7071 13.2929C52.5196 13.1054 52.2652 13 52 13H48V15H51V42H9V15H14V13H8C7.73478 13 7.48043 13.1054 7.29289 13.2929C7.10536 13.4804 7 13.7348 7 14V43C7 43.2652 7.10536 43.5196 7.29289 43.7071C7.48043 43.8946 7.73478 44 8 44H52C52.2652 44 52.5196 43.8946 52.7071 43.7071C52.8946 43.5196 53 43.2652 53 43Z" fill="#CAAD91"/>
<path d="M31 46H29V48H31V46Z" fill="#CAAD91"/>
<path d="M16 33H14V35H16V33Z" fill="#CAAD91"/>
<path d="M48 33H18V35H48V33Z" fill="#CAAD91"/>
<path d="M45 37H12V39H45V37Z" fill="#CAAD91"/>
</svg>
