<svg width="82" height="88" viewBox="0 0 82 88" fill="none" xmlns="http://www.w3.org/2000/svg">
<path d="M57.7771 33.4097H23.5055C22.6084 33.4097 21.8906 34.2171 21.8906 35.204V56.1078C21.8906 57.0947 22.6084 57.9022 23.5055 57.9022H57.7771C58.6742 57.9022 59.392 57.0947 59.392 56.1078V35.2937C59.4817 34.3068 58.7639 33.4097 57.7771 33.4097ZM25.2101 54.2238V38.4338L39.8338 48.2128C40.3721 48.5717 41.0899 48.5717 41.5385 48.2128L55.9827 38.5235V54.2238H25.2101Z" fill="#CAAD91"/>
<path d="M53.2911 7.48115H51.0482C50.779 7.48115 50.5996 7.30171 50.5996 7.03256C50.5996 6.76342 50.779 6.58398 51.0482 6.58398H53.2911C53.5602 6.58398 53.7397 6.76342 53.7397 7.03256C53.7397 7.30171 53.4705 7.48115 53.2911 7.48115Z" fill="#CAAD91"/>
<path d="M50.1512 5.05971C50.0614 5.05971 49.882 4.97 49.7923 4.88028C49.6129 4.70085 49.6129 4.34198 49.7923 4.16255L51.4072 2.54766C51.4969 2.36823 51.8558 2.36823 52.0352 2.54766C52.2146 2.72709 52.2146 3.08596 52.0352 3.26539L50.4203 4.88028C50.4203 4.97 50.3306 5.05971 50.1512 5.05971Z" fill="#CAAD91"/>
<path d="M51.6767 11.6979C51.587 11.6979 51.4075 11.6082 51.3178 11.5185L49.7029 9.90357C49.5235 9.72414 49.5235 9.36528 49.7029 9.18584C49.8824 9.00641 50.2412 9.00641 50.4207 9.18584L52.0356 10.8007C52.215 10.9802 52.215 11.339 52.0356 11.5185C52.0356 11.6979 51.8561 11.6979 51.6767 11.6979Z" fill="#CAAD91"/>
<path d="M47.6391 5.14901V0.483777C47.6391 0.304344 47.5494 0.124912 47.2802 0.0351961C47.1008 -0.05452 46.8316 0.0351961 46.7419 0.214628C46.7419 0.214628 43.6916 3.80327 37.7703 3.80327H32.1182C31.4005 3.80327 30.7725 4.16214 30.4136 4.70043C30.4136 4.70043 30.4136 4.70043 30.3239 4.70043H29.337C28.9781 4.70043 28.709 4.96958 28.709 5.32845V8.91709C28.709 9.27595 28.9781 9.5451 29.337 9.5451H30.3239C30.593 9.90397 31.0416 10.1731 31.4902 10.3525L34.4508 18.1578C34.5405 18.427 34.8097 18.6961 35.1685 18.6961H38.0395C38.3086 18.6961 38.5778 18.5167 38.7572 18.2476C38.8469 17.9784 38.8469 17.6196 38.6675 17.4401L37.1423 15.7355L35.1685 10.532H37.7703C43.6916 10.532 46.7419 14.1206 46.7419 14.1206C46.8316 14.2103 47.0111 14.3001 47.1008 14.3001C47.1905 14.3001 47.1905 14.3001 47.2802 14.3001C47.4596 14.2103 47.6391 14.0309 47.6391 13.8515V9.18624C48.5362 9.00681 49.1643 8.19936 49.1643 7.21248C49.1643 6.22561 48.5362 5.32845 47.6391 5.14901Z" fill="#CAAD91"/>
<path d="M5.92126 59.248C4.4858 55.2107 3.58864 50.9044 3.58864 46.4186C3.58864 31.436 12.4705 18.6066 25.2102 12.6853V8.73779C10.4968 14.7488 0 29.3725 0 46.3288C0 51.8912 1.07659 57.1845 3.14006 61.9394L5.92126 59.248Z" fill="#CAAD91"/>
<path d="M77.7839 46.3283C77.7839 50.4553 77.0662 54.4028 75.8999 58.0811L78.7708 60.9521C80.5651 56.3765 81.4623 51.4421 81.4623 46.3283C81.4623 29.1028 70.786 14.3894 55.624 8.37842V12.3259C68.7226 18.1575 77.7839 31.256 77.7839 46.3283Z" fill="#CAAD91"/>
<path d="M55.2647 80.6006C50.7789 82.4846 45.9342 83.5612 40.7307 83.5612C35.9757 83.5612 31.4002 82.6641 27.1835 81.0492L24.4023 83.8304C29.4264 85.9836 34.8991 87.2396 40.641 87.2396C46.8314 87.2396 52.6629 85.8938 57.8664 83.3818L55.2647 80.6006Z" fill="#CAAD91"/>
<path d="M79.5783 69.0266C78.1429 63.6437 72.6702 60.4139 67.1975 61.8493C61.8145 63.2848 58.5848 68.7575 60.0202 74.2301C60.738 76.8319 62.2631 78.8954 64.3266 80.1514L61.6351 84.1886L72.3113 81.4074C77.784 79.972 81.1035 74.4096 79.5783 69.0266ZM70.517 75.3965H65.134V73.7816H70.517V75.3965ZM75.0925 72.1667H65.134V70.5518H75.1822L75.0925 72.1667ZM75.0925 69.1163H65.134V67.5014H75.1822L75.0925 69.1163Z" fill="#CAAD91"/>
<path d="M6.28005 69.3857H2.69141V79.1648H6.28005V69.3857Z" fill="#CAAD91"/>
<path d="M8.07422 69.2956L13.3675 63.2847L15.6104 63.7332L13.9955 68.8471H21.8905L19.7373 79.1644H8.07422" fill="#CAAD91"/>
</svg>
