<svg width="66" height="72" viewBox="0 0 66 72" fill="none" xmlns="http://www.w3.org/2000/svg">
<path d="M25.1778 65.6338H18.9776C18.3369 65.6338 17.8184 66.1523 17.8184 66.793C17.8184 67.4337 18.3369 67.9522 18.9776 67.9522H25.1778C25.8185 67.9522 26.337 67.4337 26.337 66.793C26.337 66.1523 25.8185 65.6338 25.1778 65.6338Z" fill="#CAAD91"/>
<path d="M18.9776 6.05526H25.1778C25.8185 6.05526 26.337 5.53674 26.337 4.89604C26.337 4.25534 25.8185 3.73682 25.1778 3.73682H18.9776C18.3369 3.73682 17.8184 4.25534 17.8184 4.89604C17.8184 5.53674 18.3369 6.05526 18.9776 6.05526Z" fill="#CAAD91"/>
<path d="M60.7571 14.5118H44.1568V8.57753C44.1568 3.8478 40.309 0 35.5792 0H8.57648C3.84791 0 0 3.8478 0 8.57753V63.2906C0 68.0226 3.84791 71.8716 8.57648 71.8716H35.5792C40.309 71.8716 44.1568 68.0226 44.1568 63.2907V56.7055H60.7571C63.371 56.7055 65.4981 54.5807 65.4981 51.9679V19.2528C65.4982 16.6389 63.371 14.5118 60.7571 14.5118ZM8.57648 2.31844H35.5792C38.6936 2.31844 41.2624 4.61056 41.7387 7.59266H2.41802C2.89434 4.61056 5.46305 2.31844 8.57648 2.31844ZM35.5792 69.5532H8.57648C5.23979 69.5532 2.51249 66.9236 2.3356 63.628H41.8212C41.6444 66.9236 38.917 69.5532 35.5792 69.5532ZM41.8383 61.3096H2.31844V9.91109H41.8383V14.5118H39.3048C36.6921 14.5118 34.5672 16.639 34.5672 19.2528V51.9679C34.5672 54.5807 36.6921 56.7055 39.3048 56.7055H41.8383V61.3096ZM63.1798 51.9679C63.1798 53.3015 62.093 54.3871 60.7572 54.3871H39.3048C37.9713 54.3871 36.8857 53.3015 36.8857 51.9679V19.2528C36.8857 17.917 37.9713 16.8302 39.3048 16.8302H60.7572C62.093 16.8302 63.1798 17.917 63.1798 19.2528V51.9679Z" fill="#CAAD91"/>
<path d="M46.2474 43.9177C45.8467 43.4207 45.1165 43.3392 44.6172 43.7433L41.0241 46.6426C40.7512 46.8622 40.5928 47.1939 40.5928 47.5448C40.5928 47.8946 40.7512 48.2263 41.023 48.4458L44.6161 51.3496C44.8311 51.5239 45.0881 51.6077 45.344 51.6077C45.6824 51.6077 46.0176 51.4605 46.2462 51.1775C46.6492 50.6794 46.5711 49.9492 46.0741 49.5473L43.5972 47.5458L46.073 45.5478C46.5712 45.146 46.6494 44.4158 46.2474 43.9177Z" fill="#CAAD91"/>
<path d="M51.2615 43.5544C50.6547 43.3337 49.9947 43.6529 49.7808 44.2563L47.7103 50.0592C47.4941 50.6626 47.8089 51.3249 48.4122 51.5399C48.5412 51.5863 48.6726 51.6078 48.8016 51.6078C49.2782 51.6078 49.7242 51.3124 49.8929 50.838L51.9634 45.0351C52.1796 44.4317 51.8648 43.7694 51.2615 43.5544Z" fill="#CAAD91"/>
<path d="M55.0391 43.7434C54.5398 43.3392 53.8098 43.4207 53.4089 43.9177C53.007 44.4158 53.0851 45.146 53.5832 45.5479L56.0601 47.5459L53.5821 49.5463C53.0851 49.9493 53.007 50.6794 53.4089 51.1775C53.6387 51.4605 53.9738 51.6077 54.3123 51.6077C54.5681 51.6077 54.8251 51.5239 55.0402 51.3507L58.6344 48.447C58.9062 48.2263 59.0646 47.8945 59.0646 47.5448C59.0646 47.1939 58.9061 46.8621 58.6333 46.6426L55.0391 43.7434Z" fill="#CAAD91"/>
<path d="M19.9578 14.5625H15.7647C15.124 14.5625 14.6055 15.081 14.6055 15.7217V20.1605C14.6055 20.8012 15.124 21.3197 15.7647 21.3197H19.9578C20.5985 21.3197 21.117 20.8012 21.117 20.1605V15.7217C21.117 15.081 20.5986 14.5625 19.9578 14.5625ZM18.7986 19.0013H16.9239V16.8809H18.7986V19.0013Z" fill="#CAAD91"/>
<path d="M10.6199 14.5625H6.4268C5.7861 14.5625 5.26758 15.081 5.26758 15.7217V20.1605C5.26758 20.8012 5.7861 21.3197 6.4268 21.3197H10.6199C11.2606 21.3197 11.7791 20.8012 11.7791 20.1605V15.7217C11.7791 15.081 11.2606 14.5625 10.6199 14.5625ZM9.46071 19.0013H7.58602V16.8809H9.46071V19.0013Z" fill="#CAAD91"/>
<path d="M19.9578 25.2344H15.7647C15.124 25.2344 14.6055 25.7529 14.6055 26.3936V30.8324C14.6055 31.4731 15.124 31.9916 15.7647 31.9916H19.9578C20.5985 31.9916 21.117 31.4731 21.117 30.8324V26.3936C21.117 25.7528 20.5986 25.2344 19.9578 25.2344ZM18.7986 29.6731H16.9239V27.5528H18.7986V29.6731Z" fill="#CAAD91"/>
<path d="M10.6199 25.2344H6.4268C5.7861 25.2344 5.26758 25.7529 5.26758 26.3936V30.8324C5.26758 31.4731 5.7861 31.9916 6.4268 31.9916H10.6199C11.2606 31.9916 11.7791 31.4731 11.7791 30.8324V26.3936C11.7791 25.7528 11.2606 25.2344 10.6199 25.2344ZM9.46071 29.6731H7.58602V27.5528H9.46071V29.6731Z" fill="#CAAD91"/>
<path d="M10.6199 35.9087H6.4268C5.7861 35.9087 5.26758 36.4272 5.26758 37.0679V41.5078C5.26758 42.1485 5.7861 42.6671 6.4268 42.6671H10.6199C11.2606 42.6671 11.7791 42.1485 11.7791 41.5078V37.0679C11.7791 36.4271 11.2606 35.9087 10.6199 35.9087ZM9.46071 40.3485H7.58602V38.227H9.46071V40.3485Z" fill="#CAAD91"/>
<path d="M59.1542 22.0684H40.9112C40.2705 22.0684 39.752 22.5869 39.752 23.2276C39.752 23.8683 40.2705 24.3868 40.9112 24.3868H59.1542C59.7949 24.3868 60.3134 23.8683 60.3134 23.2276C60.3134 22.5869 59.795 22.0684 59.1542 22.0684Z" fill="#CAAD91"/>
<path d="M59.1542 29.3516H40.9112C40.2705 29.3516 39.752 29.8701 39.752 30.5108C39.752 31.1515 40.2705 31.67 40.9112 31.67H59.1542C59.7949 31.67 60.3134 31.1515 60.3134 30.5108C60.3134 29.8701 59.795 29.3516 59.1542 29.3516Z" fill="#CAAD91"/>
<path d="M59.1542 36.6353H40.9112C40.2705 36.6353 39.752 37.1538 39.752 37.7945C39.752 38.4352 40.2705 38.9537 40.9112 38.9537H59.1542C59.7949 38.9537 60.3134 38.4352 60.3134 37.7945C60.3134 37.1538 59.795 36.6353 59.1542 36.6353Z" fill="#CAAD91"/>
<path d="M29.2962 14.5625H25.1031C24.4624 14.5625 23.9438 15.081 23.9438 15.7217V20.1605C23.9438 20.8012 24.4624 21.3197 25.1031 21.3197H29.2962C29.9369 21.3197 30.4554 20.8012 30.4554 20.1605V15.7217C30.4554 15.081 29.9369 14.5625 29.2962 14.5625ZM28.137 19.0013H26.2623V16.8809H28.137V19.0013Z" fill="#CAAD91"/>
<path d="M29.2962 25.2344H25.1031C24.4624 25.2344 23.9438 25.7529 23.9438 26.3936V30.8324C23.9438 31.4731 24.4624 31.9916 25.1031 31.9916H29.2962C29.9369 31.9916 30.4554 31.4731 30.4554 30.8324V26.3936C30.4554 25.7528 29.9369 25.2344 29.2962 25.2344ZM28.137 29.6731H26.2623V27.5528H28.137V29.6731Z" fill="#CAAD91"/>
<path d="M19.9578 35.9087H15.7647C15.124 35.9087 14.6055 36.4272 14.6055 37.0679V41.5078C14.6055 42.1485 15.124 42.6671 15.7647 42.6671H19.9578C20.5985 42.6671 21.117 42.1485 21.117 41.5078V37.0679C21.117 36.4271 20.5986 35.9087 19.9578 35.9087ZM18.7986 40.3485H16.9239V38.227H18.7986V40.3485Z" fill="#CAAD91"/>
<path d="M10.6199 46.5806H6.4268C5.7861 46.5806 5.26758 47.0991 5.26758 47.7398V52.1786C5.26758 52.8193 5.7861 53.3378 6.4268 53.3378H10.6199C11.2606 53.3378 11.7791 52.8193 11.7791 52.1786V47.7398C11.7791 47.0991 11.2606 46.5806 10.6199 46.5806ZM9.46071 51.0193H7.58602V48.899H9.46071V51.0193Z" fill="#CAAD91"/>
</svg>
