<svg width="72" height="92" viewBox="0 0 72 92" fill="none" xmlns="http://www.w3.org/2000/svg">
<path d="M62.3077 0H9.69231C7.12175 3.83043e-08 4.65647 1.02115 2.83881 2.83881C1.02115 4.65647 0 7.12175 0 9.69231C0 12.2629 1.02115 14.7281 2.83881 16.5458C4.65647 18.3635 7.12175 19.3846 9.69231 19.3846H11.0769V25.1169C9.88905 25.4195 8.83583 26.1092 8.0836 27.077C7.33137 28.0449 6.92301 29.2357 6.92301 30.4615C6.92301 31.6873 7.33137 32.8782 8.0836 33.8461C8.83583 34.8139 9.88905 35.5036 11.0769 35.8062V41.7323C9.88905 42.0349 8.83583 42.7245 8.0836 43.6924C7.33137 44.6602 6.92301 45.8511 6.92301 47.0769C6.92301 48.3027 7.33137 49.4936 8.0836 50.4614C8.83583 51.4293 9.88905 52.119 11.0769 52.4215V58.3477C9.88905 58.6503 8.83583 59.3399 8.0836 60.3078C7.33137 61.2756 6.92301 62.4665 6.92301 63.6923C6.92301 64.9181 7.33137 66.109 8.0836 67.0768C8.83583 68.0447 9.88905 68.7344 11.0769 69.0369V74.9631C9.88905 75.2656 8.83583 75.9553 8.0836 76.9232C7.33137 77.891 6.92301 79.0819 6.92301 80.3077C6.92301 81.5335 7.33137 82.7244 8.0836 83.6922C8.83583 84.6601 9.88905 85.3497 11.0769 85.6523V90C11.0769 90.3672 11.2228 90.7194 11.4825 90.9791C11.7421 91.2387 12.0943 91.3846 12.4615 91.3846C12.8288 91.3846 13.1809 91.2387 13.4406 90.9791C13.7003 90.7194 13.8462 90.3672 13.8462 90V85.6523C15.034 85.3497 16.0873 84.6601 16.8395 83.6922C17.5917 82.7244 18.0001 81.5335 18.0001 80.3077C18.0001 79.0819 17.5917 77.891 16.8395 76.9232C16.0873 75.9553 15.034 75.2656 13.8462 74.9631V69.0369C15.034 68.7344 16.0873 68.0447 16.8395 67.0768C17.5917 66.109 18.0001 64.9181 18.0001 63.6923C18.0001 62.4665 17.5917 61.2756 16.8395 60.3078C16.0873 59.3399 15.034 58.6503 13.8462 58.3477V52.4215C15.034 52.119 16.0873 51.4293 16.8395 50.4614C17.5917 49.4936 18.0001 48.3027 18.0001 47.0769C18.0001 45.8511 17.5917 44.6602 16.8395 43.6924C16.0873 42.7245 15.034 42.0349 13.8462 41.7323V35.8062C15.034 35.5036 16.0873 34.8139 16.8395 33.8461C17.5917 32.8782 18.0001 31.6873 18.0001 30.4615C18.0001 29.2357 17.5917 28.0449 16.8395 27.077C16.0873 26.1092 15.034 25.4195 13.8462 25.1169V19.3846H62.3077C64.8783 19.3846 67.3435 18.3635 69.1612 16.5458C70.9789 14.7281 72 12.2629 72 9.69231C72 7.12175 70.9789 4.65647 69.1612 2.83881C67.3435 1.02115 64.8783 3.83043e-08 62.3077 0ZM9.69231 15.2308C8.5969 15.2308 7.5261 14.9059 6.6153 14.2974C5.70451 13.6888 4.99463 12.8238 4.57544 11.8118C4.15624 10.7998 4.04656 9.68616 4.26027 8.61181C4.47397 7.53745 5.00146 6.55059 5.77602 5.77602C6.55059 5.00146 7.53745 4.47397 8.61181 4.26027C9.68616 4.04656 10.7998 4.15624 11.8118 4.57544C12.8238 4.99463 13.6888 5.70451 14.2974 6.6153C14.9059 7.5261 15.2308 8.5969 15.2308 9.69231C15.231 10.4197 15.0878 11.14 14.8096 11.812C14.5313 12.4841 14.1234 13.0947 13.609 13.609C13.0947 14.1233 12.4841 14.5313 11.812 14.8096C11.14 15.0878 10.4197 15.231 9.69231 15.2308ZM15.2308 80.3077C15.2308 80.8554 15.0684 81.3908 14.7641 81.8462C14.4598 82.3016 14.0273 82.6565 13.5213 82.8661C13.0153 83.0757 12.4585 83.1306 11.9213 83.0237C11.3841 82.9169 10.8907 82.6531 10.5034 82.2658C10.1161 81.8785 9.85237 81.3851 9.74552 80.8479C9.63867 80.3108 9.69351 79.754 9.9031 79.248C10.1127 78.7419 10.4676 78.3094 10.923 78.0052C11.3784 77.7009 11.9138 77.5385 12.4615 77.5385C13.1953 77.5406 13.8984 77.833 14.4173 78.3519C14.9362 78.8708 15.2286 79.5739 15.2308 80.3077ZM15.2308 63.6923C15.2308 64.24 15.0684 64.7754 14.7641 65.2308C14.4598 65.6862 14.0273 66.0411 13.5213 66.2507C13.0153 66.4603 12.4585 66.5152 11.9213 66.4083C11.3841 66.3015 10.8907 66.0377 10.5034 65.6504C10.1161 65.2632 9.85237 64.7697 9.74552 64.2326C9.63867 63.6954 9.69351 63.1386 9.9031 62.6326C10.1127 62.1266 10.4676 61.6941 10.923 61.3898C11.3784 61.0855 11.9138 60.9231 12.4615 60.9231C13.1953 60.9252 13.8984 61.2177 14.4173 61.7365C14.9362 62.2554 15.2286 62.9585 15.2308 63.6923ZM15.2308 47.0769C15.2308 47.6246 15.0684 48.16 14.7641 48.6154C14.4598 49.0708 14.0273 49.4258 13.5213 49.6354C13.0153 49.845 12.4585 49.8998 11.9213 49.7929C11.3841 49.6861 10.8907 49.4223 10.5034 49.0351C10.1161 48.6478 9.85237 48.1544 9.74552 47.6172C9.63867 47.08 9.69351 46.5232 9.9031 46.0172C10.1127 45.5112 10.4676 45.0787 10.923 44.7744C11.3784 44.4701 11.9138 44.3077 12.4615 44.3077C13.1953 44.3098 13.8984 44.6023 14.4173 45.1211C14.9362 45.64 15.2286 46.3431 15.2308 47.0769ZM15.2308 30.4615C15.2308 31.0092 15.0684 31.5446 14.7641 32C14.4598 32.4554 14.0273 32.8104 13.5213 33.02C13.0153 33.2296 12.4585 33.2844 11.9213 33.1776C11.3841 33.0707 10.8907 32.807 10.5034 32.4197C10.1161 32.0324 9.85237 31.539 9.74552 31.0018C9.63867 30.4646 9.69351 29.9078 9.9031 29.4018C10.1127 28.8958 10.4676 28.4633 10.923 28.159C11.3784 27.8547 11.9138 27.6923 12.4615 27.6923C13.1953 27.6945 13.8984 27.9869 14.4173 28.5058C14.9362 29.0246 15.2286 29.7278 15.2308 30.4615Z" fill="#CAAD91"/>
<path d="M9.69208 12.4613C11.2215 12.4613 12.4613 11.2215 12.4613 9.69208C12.4613 8.16268 11.2215 6.92285 9.69208 6.92285C8.16268 6.92285 6.92285 8.16268 6.92285 9.69208C6.92285 11.2215 8.16268 12.4613 9.69208 12.4613Z" fill="#CAAD91"/>
<path d="M55.3848 77.5386C57.6789 77.5386 59.5386 75.6789 59.5386 73.3848C59.5386 71.0907 57.6789 69.231 55.3848 69.231C53.0907 69.231 51.231 71.0907 51.231 73.3848C51.231 75.6789 53.0907 77.5386 55.3848 77.5386Z" fill="#CAAD91"/>
<path d="M58.694 36.3875C58.331 35.8424 57.839 35.3954 57.2617 35.0862C56.6844 34.777 56.0396 34.6152 55.3847 34.6152C54.7298 34.6152 54.0851 34.777 53.5078 35.0862C52.9305 35.3954 52.4385 35.8424 52.0755 36.3875L45.0693 46.8967C44.6391 47.5417 44.3803 48.2858 44.3173 49.0585C44.2543 49.8313 44.3893 50.6074 44.7093 51.3136C45.0986 52.1323 45.7159 52.8212 46.4871 53.2977C47.2584 53.7742 48.1507 54.018 49.057 53.9998H49.8463C50.2132 54.0009 50.5647 54.1471 50.8241 54.4065C51.0836 54.666 51.2298 55.0175 51.2309 55.3844V63.5398C51.2178 64.5418 51.5573 65.5165 52.1901 66.2935C52.8228 67.0705 53.7086 67.6004 54.6924 67.7905C54.9211 67.8296 55.1528 67.8482 55.3847 67.8459C56.3684 67.8475 57.3206 67.499 58.0709 66.8629C58.529 66.4709 58.8973 65.9848 59.1506 65.4376C59.4039 64.8904 59.5362 64.295 59.5386 63.6921V55.3844C59.5397 55.0175 59.6859 54.666 59.9453 54.4065C60.2048 54.1471 60.5563 54.0009 60.9232 53.9998H61.7124C62.6188 54.018 63.5111 53.7742 64.2823 53.2977C65.0535 52.8212 65.6708 52.1323 66.0601 51.3136C66.3802 50.6074 66.5151 49.8313 66.4521 49.0585C66.3891 48.2858 66.1303 47.5417 65.7001 46.8967L58.694 36.3875Z" fill="#CAAD91"/>
<path d="M45.6921 29.077C45.6922 28.8952 45.6564 28.7151 45.5868 28.5471C45.5173 28.3791 45.4153 28.2264 45.2867 28.0978C45.1581 27.9692 45.0054 27.8673 44.8374 27.7977C44.6694 27.7281 44.4893 27.6923 44.3075 27.6924H22.1537C21.7864 27.6924 21.4343 27.8383 21.1746 28.0979C20.9149 28.3576 20.769 28.7098 20.769 29.077C20.769 29.4442 20.9149 29.7964 21.1746 30.0561C21.4343 30.3157 21.7864 30.4616 22.1537 30.4616H44.3075C44.4893 30.4617 44.6694 30.4259 44.8374 30.3563C45.0054 30.2867 45.1581 30.1848 45.2867 30.0562C45.4153 29.9276 45.5173 29.7749 45.5868 29.6069C45.6564 29.4389 45.6922 29.2588 45.6921 29.077Z" fill="#CAAD91"/>
<path d="M22.1537 34.6154H33.2306C33.5978 34.6154 33.95 34.4695 34.2097 34.2099C34.4693 33.9502 34.6152 33.598 34.6152 33.2308C34.6152 32.8636 34.4693 32.5114 34.2097 32.2517C33.95 31.9921 33.5978 31.8462 33.2306 31.8462H22.1537C21.7864 31.8462 21.4343 31.9921 21.1746 32.2517C20.9149 32.5114 20.769 32.8636 20.769 33.2308C20.769 33.598 20.9149 33.9502 21.1746 34.2099C21.4343 34.4695 21.7864 34.6154 22.1537 34.6154Z" fill="#CAAD91"/>
<path d="M22.1537 38.7692H33.2306C33.5978 38.7692 33.95 38.6234 34.2097 38.3637C34.4693 38.104 34.6152 37.7518 34.6152 37.3846C34.6152 37.0174 34.4693 36.6652 34.2097 36.4055C33.95 36.1459 33.5978 36 33.2306 36H22.1537C21.7864 36 21.4343 36.1459 21.1746 36.4055C20.9149 36.6652 20.769 37.0174 20.769 37.3846C20.769 37.7518 20.9149 38.104 21.1746 38.3637C21.4343 38.6234 21.7864 38.7692 22.1537 38.7692Z" fill="#CAAD91"/>
<path d="M38.769 44.3076H22.1537C21.7864 44.3076 21.4343 44.4535 21.1746 44.7132C20.9149 44.9728 20.769 45.325 20.769 45.6922C20.769 46.0595 20.9149 46.4116 21.1746 46.6713C21.4343 46.931 21.7864 47.0768 22.1537 47.0768H38.769C39.1363 47.0768 39.4884 46.931 39.7481 46.6713C40.0078 46.4116 40.1537 46.0595 40.1537 45.6922C40.1537 45.325 40.0078 44.9728 39.7481 44.7132C39.4884 44.4535 39.1363 44.3076 38.769 44.3076Z" fill="#CAAD91"/>
<path d="M22.1537 51.2307H27.6921C28.0593 51.2307 28.4115 51.0848 28.6712 50.8251C28.9309 50.5654 29.0767 50.2133 29.0767 49.846C29.0767 49.4788 28.9309 49.1266 28.6712 48.867C28.4115 48.6073 28.0593 48.4614 27.6921 48.4614H22.1537C21.7864 48.4614 21.4343 48.6073 21.1746 48.867C20.9149 49.1266 20.769 49.4788 20.769 49.846C20.769 50.2133 20.9149 50.5654 21.1746 50.8251C21.4343 51.0848 21.7864 51.2307 22.1537 51.2307Z" fill="#CAAD91"/>
<path d="M22.1537 55.3845H27.6921C28.0593 55.3845 28.4115 55.2386 28.6712 54.9789C28.9309 54.7193 29.0767 54.3671 29.0767 53.9998C29.0767 53.6326 28.9309 53.2804 28.6712 53.0208C28.4115 52.7611 28.0593 52.6152 27.6921 52.6152H22.1537C21.7864 52.6152 21.4343 52.7611 21.1746 53.0208C20.9149 53.2804 20.769 53.6326 20.769 53.9998C20.769 54.3671 20.9149 54.7193 21.1746 54.9789C21.4343 55.2386 21.7864 55.3845 22.1537 55.3845Z" fill="#CAAD91"/>
<path d="M38.769 60.9229H22.1537C21.7864 60.9229 21.4343 61.0687 21.1746 61.3284C20.9149 61.5881 20.769 61.9402 20.769 62.3075C20.769 62.6747 20.9149 63.0269 21.1746 63.2865C21.4343 63.5462 21.7864 63.6921 22.1537 63.6921H38.769C39.1363 63.6921 39.4884 63.5462 39.7481 63.2865C40.0078 63.0269 40.1537 62.6747 40.1537 62.3075C40.1537 61.9402 40.0078 61.5881 39.7481 61.3284C39.4884 61.0687 39.1363 60.9229 38.769 60.9229Z" fill="#CAAD91"/>
<path d="M22.1537 67.8464H27.6921C28.0593 67.8464 28.4115 67.7005 28.6712 67.4408C28.9309 67.1812 29.0767 66.829 29.0767 66.4618C29.0767 66.0945 28.9309 65.7424 28.6712 65.4827C28.4115 65.223 28.0593 65.0771 27.6921 65.0771H22.1537C21.7864 65.0771 21.4343 65.223 21.1746 65.4827C20.9149 65.7424 20.769 66.0945 20.769 66.4618C20.769 66.829 20.9149 67.1812 21.1746 67.4408C21.4343 67.7005 21.7864 67.8464 22.1537 67.8464Z" fill="#CAAD91"/>
<path d="M22.1537 72.0002H27.6921C28.0593 72.0002 28.4115 71.8543 28.6712 71.5946C28.9309 71.335 29.0767 70.9828 29.0767 70.6156C29.0767 70.2483 28.9309 69.8962 28.6712 69.6365C28.4115 69.3768 28.0593 69.231 27.6921 69.231H22.1537C21.7864 69.231 21.4343 69.3768 21.1746 69.6365C20.9149 69.8962 20.769 70.2483 20.769 70.6156C20.769 70.9828 20.9149 71.335 21.1746 71.5946C21.4343 71.8543 21.7864 72.0002 22.1537 72.0002Z" fill="#CAAD91"/>
<path d="M38.769 77.5386H22.1537C21.7864 77.5386 21.4343 77.6845 21.1746 77.9441C20.9149 78.2038 20.769 78.556 20.769 78.9232C20.769 79.2904 20.9149 79.6426 21.1746 79.9023C21.4343 80.1619 21.7864 80.3078 22.1537 80.3078H38.769C39.1363 80.3078 39.4884 80.1619 39.7481 79.9023C40.0078 79.6426 40.1537 79.2904 40.1537 78.9232C40.1537 78.556 40.0078 78.2038 39.7481 77.9441C39.4884 77.6845 39.1363 77.5386 38.769 77.5386Z" fill="#CAAD91"/>
<path d="M27.6921 81.6924H22.1537C21.7864 81.6924 21.4343 81.8383 21.1746 82.0979C20.9149 82.3576 20.769 82.7098 20.769 83.077C20.769 83.4442 20.9149 83.7964 21.1746 84.0561C21.4343 84.3157 21.7864 84.4616 22.1537 84.4616H27.6921C28.0593 84.4616 28.4115 84.3157 28.6712 84.0561C28.9309 83.7964 29.0767 83.4442 29.0767 83.077C29.0767 82.7098 28.9309 82.3576 28.6712 82.0979C28.4115 81.8383 28.0593 81.6924 27.6921 81.6924Z" fill="#CAAD91"/>
<path d="M27.6921 85.8462H22.1537C21.7864 85.8462 21.4343 85.9921 21.1746 86.2517C20.9149 86.5114 20.769 86.8636 20.769 87.2308C20.769 87.598 20.9149 87.9502 21.1746 88.2099C21.4343 88.4695 21.7864 88.6154 22.1537 88.6154H27.6921C28.0593 88.6154 28.4115 88.4695 28.6712 88.2099C28.9309 87.9502 29.0767 87.598 29.0767 87.2308C29.0767 86.8636 28.9309 86.5114 28.6712 86.2517C28.4115 85.9921 28.0593 85.8462 27.6921 85.8462Z" fill="#CAAD91"/>
</svg>
