<svg width="86" height="86" viewBox="0 0 86 86" fill="none" xmlns="http://www.w3.org/2000/svg">
<path d="M85.9627 18.8107C85.9602 14.5315 84.4982 10.3812 81.8181 7.0453C79.138 3.7094 75.4002 1.38748 71.2221 0.463102C67.044 -0.461281 62.6755 0.0671706 58.8383 1.96117C55.0011 3.85516 51.9248 7.00139 50.1175 10.8801C45.4201 9.8393 40.5519 9.8393 35.8546 10.8801C34.7679 8.54013 33.2111 6.44888 31.2812 4.73659C29.3513 3.02429 27.0896 1.72761 24.6368 0.927281C22.1841 0.12695 19.5928 -0.159898 17.0244 0.0845957C14.456 0.32909 11.9654 1.09969 9.70772 2.34842C7.45002 3.59715 5.47356 5.29728 3.90137 7.34295C2.32919 9.38862 1.19495 11.736 0.56928 14.239C-0.0563938 16.742 -0.160108 19.3471 0.264593 21.8919C0.689295 24.4367 1.63332 26.8669 3.03789 29.0311C4.96979 31.9879 7.68517 34.3499 10.8811 35.8536C9.81566 40.5482 9.81566 45.4219 10.8811 50.1165C8.13767 51.3909 5.7422 53.3084 3.89805 55.7063C2.0539 58.1041 0.815527 60.9115 0.288053 63.8902C-0.239421 66.8689 -0.040423 69.9308 0.868154 72.8162C1.77673 75.7015 3.36806 78.325 5.50706 80.464C7.64606 82.603 10.2696 84.1943 13.1549 85.1029C16.0402 86.0115 19.1022 86.2105 22.0809 85.683C25.0595 85.1555 27.8669 83.9172 30.2648 82.073C32.6627 80.2289 34.5802 77.8334 35.8546 75.0899C40.5492 76.1554 45.4229 76.1554 50.1175 75.0899C51.3919 77.8334 53.3094 80.2289 55.7072 82.073C58.1051 83.9172 60.9125 85.1555 63.8912 85.683C66.8699 86.2105 69.9318 86.0115 72.8171 85.1029C75.7025 84.1943 78.326 82.603 80.465 80.464C82.604 78.325 84.1953 75.7015 85.1039 72.8162C86.0125 69.9308 86.2115 66.8689 85.684 63.8902C85.1565 60.9115 83.9182 58.1041 82.074 55.7063C80.2299 53.3084 77.8344 51.3909 75.0909 50.1165C76.1564 45.4219 76.1564 40.5482 75.0909 35.8536C78.3357 34.3401 81.0817 31.9329 83.0073 28.9144C84.9328 25.8959 85.958 22.391 85.9627 18.8107ZM26.4333 12.7738C29.7 14.2421 32.6753 16.2871 35.2167 18.8107C32.6791 21.3406 29.703 23.3884 26.4333 24.8543C27.8027 23.1388 28.5485 21.009 28.5485 18.814C28.5485 16.6191 27.8027 14.4892 26.4333 12.7738ZM2.40667 18.8107C4.9442 16.2807 7.92033 14.2329 11.19 12.7671C9.82064 14.4825 9.0748 16.6123 9.0748 18.8073C9.0748 21.0023 9.82064 23.1321 11.19 24.8475C7.92338 23.3792 4.94805 21.3342 2.40667 18.8107ZM31.6778 77.9304C31.2229 75.631 30.1648 73.4939 28.6119 71.7381C27.0591 69.9823 25.0673 68.6709 22.8407 67.9384C23.9598 67.0938 24.7852 65.9188 25.2002 64.5797C25.6152 63.2405 25.5989 61.8047 25.1535 60.4753C24.7081 59.1459 23.8563 57.9901 22.7183 57.1712C21.5803 56.3522 20.2137 55.9116 18.8117 55.9116C17.4096 55.9116 16.0431 56.3522 14.9051 57.1712C13.7671 57.9901 12.9152 59.1459 12.4698 60.4753C12.0245 61.8047 12.0081 63.2405 12.4232 64.5797C12.8382 65.9188 13.6635 67.0938 14.7826 67.9384C12.556 68.6709 10.5643 69.9823 9.01141 71.7381C7.45856 73.4939 6.40045 75.631 5.94553 77.9304C3.89328 75.4819 2.58232 72.4986 2.16663 69.3309C1.75093 66.1632 2.24776 62.9427 3.59876 60.0476C4.94976 57.1524 7.09883 54.7029 9.79357 52.9867C12.4883 51.2705 15.6168 50.3588 18.8117 50.3588C22.0065 50.3588 25.135 51.2705 27.8298 52.9867C30.5245 54.7029 32.6736 57.1524 34.0246 60.0476C35.3756 62.9427 35.8724 66.1632 35.4567 69.3309C35.041 72.4986 33.7301 75.4819 31.6778 77.9304ZM48.3581 67.1594C48.3583 69.213 48.6963 71.2525 49.3587 73.1963C45.1558 74.076 40.8163 74.076 36.6134 73.1963C37.7431 69.8743 37.9201 66.3025 37.1243 62.8851C36.3285 59.4678 34.5917 56.3415 32.1106 53.8605C29.6295 51.3794 26.5033 49.6426 23.086 48.8468C19.6686 48.051 16.0967 48.228 12.7748 49.3577C11.8705 45.1574 11.8705 40.8127 12.7748 36.6124C16.0967 37.7421 19.6686 37.9191 23.086 37.1233C26.5033 36.3275 29.6295 34.5907 32.1106 32.1096C34.5917 29.6285 36.3285 26.5023 37.1243 23.085C37.9201 19.6676 37.7431 16.0957 36.6134 12.7738C40.8163 11.8941 45.1558 11.8941 49.3587 12.7738C48.229 16.0957 48.052 19.6676 48.8478 23.085C49.6436 26.5023 51.3804 29.6285 53.8615 32.1096C56.3425 34.5907 59.4688 36.3275 62.8861 37.1233C66.3034 37.9191 69.8753 37.7421 73.1973 36.6124C74.1016 40.8127 74.1016 45.1574 73.1973 49.3577C70.3684 48.3956 67.351 48.1221 64.3953 48.5598C61.4396 48.9975 58.6309 50.1338 56.2022 51.8743C53.7736 53.6149 51.7951 55.9095 50.4309 58.5678C49.0667 61.2261 48.3561 64.1715 48.3581 67.1594ZM73.204 82.819C69.3116 84.3031 65.0092 84.3031 61.1168 82.819V81.8789H73.204V82.819ZM77.4211 67.3139C77.5742 67.4786 77.6674 67.69 77.6857 67.9142C77.7039 68.1383 77.6462 68.3621 77.5218 68.5494C74.6343 73.0217 73.4189 76.1979 73.2308 79.8644H61.0899C60.9019 76.1979 59.6865 73.0217 56.799 68.5494C56.6746 68.3621 56.6169 68.1383 56.6351 67.9142C56.6534 67.69 56.7466 67.4786 56.8997 67.3139C60.3788 63.5834 63.4785 59.5165 66.1531 55.1729V66.602C65.3879 66.8427 64.7341 67.3494 64.3101 68.0303C63.8862 68.7113 63.72 69.5216 63.8417 70.3145C63.9635 71.1074 64.3651 71.8305 64.9738 72.3529C65.5826 72.8753 66.3582 73.1625 67.1604 73.1625C67.9626 73.1625 68.7382 72.8753 69.347 72.3529C69.9557 71.8305 70.3573 71.1074 70.4791 70.3145C70.6008 69.5216 70.4346 68.7113 70.0107 68.0303C69.5867 67.3494 68.9329 66.8427 68.1677 66.602V55.1729C70.8423 59.5165 73.942 63.5834 77.4211 67.3139ZM67.9528 20.1537L57.269 32.3685C56.725 31.9722 56.2069 31.5415 55.7179 31.0792L65.9853 19.3479L52.6155 10.4369C52.9502 9.85312 53.3203 9.29025 53.7235 8.75145L66.4889 17.2662V2.03634C67.1607 2.00831 67.8336 2.02401 68.5034 2.08335V18.1392H83.9347C83.9628 18.811 83.9471 19.4839 83.8877 20.1537H67.9528Z" fill="#CAAD91"/>
</svg>
