<svg width="84" height="80" viewBox="0 0 84 80" fill="none" xmlns="http://www.w3.org/2000/svg">
<path d="M77 0.799805H7C3.136 0.799805 0 3.9358 0 7.7998V58.1998C0 62.0638 3.136 65.1998 7 65.1998H32.2V76.3998H28C27.23 76.3998 26.6 77.0298 26.6 77.7998C26.6 78.5698 27.23 79.1998 28 79.1998H56C56.77 79.1998 57.4 78.5698 57.4 77.7998C57.4 77.0298 56.77 76.3998 56 76.3998H51.8V65.1998H77C80.864 65.1998 84 62.0638 84 58.1998V7.7998C84 3.9358 80.864 0.799805 77 0.799805ZM49 76.3998H35V65.1998H49V76.3998ZM81.2 58.1998C81.2 60.5098 79.31 62.3998 77 62.3998H7C4.69 62.3998 2.8 60.5098 2.8 58.1998V56.7998H81.2V58.1998ZM81.2 53.9998H2.8V7.7998C2.8 5.4898 4.69 3.5998 7 3.5998H77C79.31 3.5998 81.2 5.4898 81.2 7.7998V53.9998Z" fill="#CAAD91"/>
<path d="M46.2001 38.5998C46.9701 38.5998 47.6001 37.9698 47.6001 37.1998V9.1998C47.6001 8.4298 46.9701 7.7998 46.2001 7.7998H7.0001C6.2301 7.7998 5.6001 8.4298 5.6001 9.1998V37.1998C5.6001 37.9698 6.2301 38.5998 7.0001 38.5998H46.2001ZM8.4001 10.5998H44.8001V35.7998H8.4001V10.5998Z" fill="#CAAD91"/>
<path d="M75.6 45.5998H33.348C32.774 43.9758 31.234 42.7998 29.4 42.7998C27.566 42.7998 26.04 43.9758 25.452 45.5998H8.4C7.63 45.5998 7 46.2298 7 46.9998C7 47.7698 7.63 48.3998 8.4 48.3998H25.452C26.026 50.0238 27.566 51.1998 29.4 51.1998C31.234 51.1998 32.76 50.0238 33.348 48.3998H75.6C76.37 48.3998 77 47.7698 77 46.9998C77 46.2298 76.37 45.5998 75.6 45.5998ZM29.4 48.3998C28.63 48.3998 28 47.7698 28 46.9998C28 46.2298 28.63 45.5998 29.4 45.5998C30.17 45.5998 30.8 46.2298 30.8 46.9998C30.8 47.7698 30.17 48.3998 29.4 48.3998Z" fill="#CAAD91"/>
<path d="M51.7999 31.5998H53.1999V37.1998C53.1999 37.9698 53.8299 38.5998 54.5999 38.5998C55.3699 38.5998 55.9999 37.9698 55.9999 37.1998V31.5998H57.3999C58.1699 31.5998 58.7999 30.9698 58.7999 30.1998V24.5998C58.7999 23.8298 58.1699 23.1998 57.3999 23.1998H55.9999V9.1998C55.9999 8.4298 55.3699 7.7998 54.5999 7.7998C53.8299 7.7998 53.1999 8.4298 53.1999 9.1998V23.1998H51.7999C51.0299 23.1998 50.3999 23.8298 50.3999 24.5998V30.1998C50.3999 30.9698 51.0299 31.5998 51.7999 31.5998ZM53.1999 25.9998H55.9999V28.7998H53.1999V25.9998Z" fill="#CAAD91"/>
<path d="M61.6002 20.3998H63.0002V37.1998C63.0002 37.9698 63.6302 38.5998 64.4002 38.5998C65.1702 38.5998 65.8002 37.9698 65.8002 37.1998V20.3998H67.2002C67.9702 20.3998 68.6002 19.7698 68.6002 18.9998V13.3998C68.6002 12.6298 67.9702 11.9998 67.2002 11.9998H65.8002V9.1998C65.8002 8.4298 65.1702 7.7998 64.4002 7.7998C63.6302 7.7998 63.0002 8.4298 63.0002 9.1998V11.9998H61.6002C60.8302 11.9998 60.2002 12.6298 60.2002 13.3998V18.9998C60.2002 19.7698 60.8302 20.3998 61.6002 20.3998ZM63.0002 14.7998H65.8002V17.5998H63.0002V14.7998Z" fill="#CAAD91"/>
<path d="M77 24.5998H75.6V9.1998C75.6 8.4298 74.97 7.7998 74.2 7.7998C73.43 7.7998 72.8 8.4298 72.8 9.1998V24.5998H71.4C70.63 24.5998 70 25.2298 70 25.9998V31.5998C70 32.3698 70.63 32.9998 71.4 32.9998H72.8V37.1998C72.8 37.9698 73.43 38.5998 74.2 38.5998C74.97 38.5998 75.6 37.9698 75.6 37.1998V32.9998H77C77.77 32.9998 78.4 32.3698 78.4 31.5998V25.9998C78.4 25.2298 77.77 24.5998 77 24.5998ZM75.6 30.1998H72.8V27.3998H75.6V30.1998Z" fill="#CAAD91"/>
<path d="M33.6278 20.8338L23.8138 15.1778C22.9458 14.6738 21.8538 14.6738 20.9858 15.1778C20.1318 15.6678 19.6138 16.5498 19.6138 17.5298V28.8558C19.6138 29.8358 20.1318 30.7178 20.9858 31.2078C21.4198 31.4598 21.9098 31.5858 22.3998 31.5858C22.8898 31.5858 23.3798 31.4598 23.8138 31.2078L33.6278 25.5518C34.4958 25.0478 34.9998 24.1658 34.9998 23.1858C34.9998 22.2058 34.4818 21.3238 33.6278 20.8198V20.8338ZM22.3998 28.8558V17.5298L32.2278 23.1298L22.3998 28.8558Z" fill="#CAAD91"/>
</svg>
