<svg width="64" height="64" viewBox="0 0 64 64" fill="none" xmlns="http://www.w3.org/2000/svg">
<path fill-rule="evenodd" clip-rule="evenodd" d="M46.1714 38.1056C46.1712 38.3044 46.087 38.4951 45.9374 38.6356C45.7877 38.7762 45.5847 38.8551 45.3731 38.8551H16.3038C16.197 38.8582 16.0905 38.8411 15.9908 38.8048C15.8912 38.7685 15.8002 38.7138 15.7235 38.6438C15.6468 38.5739 15.5857 38.4902 15.5441 38.3977C15.5024 38.3052 15.4809 38.2057 15.4809 38.1052C15.4809 38.0048 15.5024 37.9053 15.5441 37.8128C15.5857 37.7203 15.6468 37.6366 15.7235 37.5667C15.8002 37.4967 15.8912 37.442 15.9908 37.4057C16.0905 37.3694 16.197 37.3523 16.3038 37.3554H45.3731C45.5848 37.3554 45.7879 37.4344 45.9376 37.5751C46.0873 37.7158 46.1714 37.9066 46.1714 38.1056ZM46.1714 34.3367C46.1714 34.4352 46.1508 34.5327 46.1107 34.6237C46.0705 34.7147 46.0117 34.7973 45.9376 34.8669C45.8634 34.9366 45.7754 34.9917 45.6786 35.0294C45.5817 35.067 45.4779 35.0863 45.3731 35.0862H16.3038C16.197 35.0893 16.0905 35.0722 15.9908 35.0359C15.8912 34.9996 15.8002 34.9449 15.7235 34.8749C15.6468 34.805 15.5857 34.7213 15.5441 34.6288C15.5024 34.5363 15.4809 34.4368 15.4809 34.3364C15.4809 34.2359 15.5024 34.1365 15.5441 34.0439C15.5857 33.9514 15.6468 33.8677 15.7235 33.7978C15.8002 33.7278 15.8912 33.6731 15.9908 33.6368C16.0905 33.6005 16.197 33.5834 16.3038 33.5865H45.3731C45.5848 33.5865 45.7879 33.6655 45.9376 33.8062C46.0873 33.9469 46.1714 34.1377 46.1714 34.3367ZM16.3038 29.814H45.3731C45.48 29.811 45.5864 29.8281 45.6861 29.8644C45.7858 29.9006 45.8767 29.9554 45.9534 30.0253C46.0302 30.0953 46.0912 30.179 46.1329 30.2715C46.1745 30.364 46.196 30.4634 46.196 30.5639C46.196 30.6644 46.1745 30.7638 46.1329 30.8563C46.0912 30.9489 46.0302 31.0326 45.9534 31.1025C45.8767 31.1724 45.7858 31.2272 45.6861 31.2635C45.5864 31.2998 45.48 31.3169 45.3731 31.3138H16.3038C16.197 31.3169 16.0905 31.2998 15.9908 31.2635C15.8912 31.2272 15.8002 31.1724 15.7235 31.1025C15.6468 31.0326 15.5857 30.9489 15.5441 30.8563C15.5024 30.7638 15.4809 30.6644 15.4809 30.5639C15.4809 30.4634 15.5024 30.364 15.5441 30.2715C15.5857 30.179 15.6468 30.0953 15.7235 30.0253C15.8002 29.9554 15.8912 29.9006 15.9908 29.8644C16.0905 29.8281 16.197 29.811 16.3038 29.814ZM45.3292 27.365L49.1884 15.8585C49.2554 15.6726 49.3971 15.5188 49.5833 15.43C49.7695 15.3413 49.9853 15.3246 50.1845 15.3835C50.3836 15.4425 50.5503 15.5725 50.6487 15.7455C50.7471 15.9186 50.7694 16.121 50.7109 16.3093L46.8517 27.8165C46.8202 27.9105 46.7692 27.9978 46.7018 28.0732C46.6344 28.1487 46.5518 28.211 46.4588 28.2565C46.3657 28.302 46.2641 28.3298 46.1596 28.3384C46.0551 28.347 45.9499 28.3361 45.8498 28.3065C45.7498 28.2768 45.657 28.229 45.5767 28.1656C45.4963 28.1022 45.4301 28.0246 45.3817 27.9372C45.3333 27.8498 45.3036 27.7542 45.2945 27.6561C45.2854 27.5579 45.2977 27.459 45.3292 27.365ZM51.3404 25.0084L54.7584 21.7963L53.3275 20.5333L53.3101 20.517L51.3427 18.6681C51.1929 18.5274 51.1087 18.3365 51.1086 18.1375C51.1086 17.9385 51.1926 17.7475 51.3423 17.6068C51.492 17.466 51.6951 17.3868 51.9069 17.3868C52.1187 17.3867 52.3219 17.4657 52.4717 17.6064L54.4323 19.4489L56.3876 21.1755C56.4741 21.2518 56.5435 21.3437 56.5915 21.4457C56.6394 21.5477 56.6651 21.6577 56.667 21.7692C56.6688 21.8808 56.6467 21.9915 56.6021 22.0948C56.5575 22.1982 56.4913 22.292 56.4073 22.3708L52.4725 26.0686C52.3216 26.2034 52.1206 26.2774 51.9125 26.275C51.7043 26.2725 51.5054 26.1938 51.3582 26.0555C51.211 25.9172 51.127 25.7303 51.1243 25.5347C51.1215 25.3391 51.2002 25.1502 51.3435 25.0084H51.3404ZM39.6358 22.3701C39.552 22.2912 39.4859 22.1973 39.4414 22.0939C39.3969 21.9906 39.375 21.8799 39.3769 21.7684C39.3788 21.6569 39.4045 21.5469 39.4525 21.4449C39.5005 21.343 39.5698 21.2511 39.6563 21.1748L41.6101 19.4482L43.5707 17.6057C43.7205 17.4651 43.9236 17.3862 44.1353 17.3863C44.3471 17.3864 44.55 17.4656 44.6997 17.6064C44.8493 17.7472 44.9333 17.9381 44.9331 18.137C44.933 18.336 44.8487 18.5268 44.6989 18.6674L42.7315 20.5163L42.7141 20.5326L41.2832 21.7956L44.7004 25.0076C44.7745 25.0773 44.8333 25.1599 44.8734 25.2509C44.9134 25.3418 44.9341 25.4393 44.9341 25.5378C44.9341 25.6362 44.9134 25.7337 44.8734 25.8247C44.8333 25.9156 44.7745 25.9983 44.7004 26.0679C44.6263 26.1375 44.5384 26.1928 44.4416 26.2304C44.3448 26.2681 44.2411 26.2875 44.1363 26.2875C44.0315 26.2875 43.9278 26.2681 43.831 26.2304C43.7342 26.1928 43.6463 26.1375 43.5722 26.0679L39.6374 22.3701H39.6358ZM1.59588 14.4683V46.3972C1.59668 47.3077 1.98189 48.1808 2.66697 48.8248C3.35205 49.4687 4.28102 49.8309 5.24997 49.8318H58.7485C59.7175 49.8309 60.6466 49.4687 61.3318 48.8248C62.017 48.1809 62.4024 47.3078 62.4034 46.3972V14.4683C62.4024 13.5577 62.017 12.6847 61.3317 12.0409C60.6465 11.3971 59.7175 11.0351 58.7485 11.0343H35.987L36.3714 11.1097C36.5506 11.1454 36.7113 11.2378 36.8266 11.3716C36.9419 11.5053 37.0048 11.6722 37.0048 11.8443V13.1008H57.9267C58.5282 13.1017 59.1046 13.3269 59.5295 13.7269C59.9544 14.1269 60.1931 14.669 60.1931 15.2341V41.8731C60.1931 42.4382 59.9544 42.9803 59.5295 43.3803C59.1046 43.7803 58.5282 44.0055 57.9267 44.0064H6.07326C5.47119 44.0064 4.89378 43.7816 4.46806 43.3816C4.04233 42.9815 3.80316 42.4389 3.80316 41.8731V15.2313C3.80316 14.6655 4.04233 14.1229 4.46806 13.7228C4.89378 13.3227 5.47119 13.098 6.07326 13.098H7.52763V11.8443C7.52778 11.6718 7.59113 11.5046 7.70703 11.3708C7.82292 11.237 7.98429 11.1448 8.16401 11.1097L8.54917 11.0343H5.24997C4.28115 11.0353 3.3523 11.3973 2.66724 12.0411C1.98218 12.6849 1.59688 13.5578 1.59588 14.4683ZM36.3714 16.5902L34.3026 17.002C34.0323 17.9153 33.6445 18.7943 33.1479 19.6196L34.3019 21.2864C34.4016 21.4305 34.4457 21.6025 34.4267 21.7735C34.4077 21.9445 34.3268 22.1042 34.1975 22.2258L31.1782 25.0631C31.0488 25.1846 30.8789 25.2607 30.6969 25.2786C30.515 25.2964 30.332 25.255 30.1786 25.1612L28.4049 24.0761C27.5269 24.5436 26.5912 24.908 25.6188 25.1612L25.1814 27.1061C25.1437 27.2744 25.0456 27.4254 24.9036 27.5337C24.7616 27.6421 24.5842 27.7013 24.4012 27.7013H20.1312C19.9481 27.7013 19.7707 27.6421 19.6285 27.5338C19.4863 27.4254 19.3881 27.2744 19.3503 27.1061L18.9129 25.1612C17.9408 24.9077 17.0054 24.5433 16.1275 24.0761L14.3538 25.1612C14.2004 25.255 14.0175 25.2964 13.8355 25.2786C13.6535 25.2607 13.4836 25.1846 13.3542 25.0631L10.335 22.2258C10.2055 22.1042 10.1245 21.9445 10.1055 21.7735C10.0865 21.6025 10.1306 21.4305 10.2306 21.2864L11.3845 19.6196C10.8878 18.7944 10.5001 17.9154 10.2298 17.002L8.16401 16.5902C7.98505 16.5545 7.82457 16.4622 7.70941 16.3286C7.59426 16.195 7.53142 16.0283 7.53141 15.8564V14.6005H6.07326C5.89525 14.6005 5.72453 14.667 5.59865 14.7853C5.47278 14.9036 5.40207 15.064 5.40207 15.2313V41.8731C5.40227 42.0403 5.47305 42.2006 5.59888 42.3189C5.7247 42.4371 5.89531 42.5036 6.07326 42.5038H57.9267C58.1046 42.5036 58.2751 42.4371 58.4009 42.3188C58.5266 42.2006 58.5972 42.0402 58.5972 41.8731V15.2313C58.5972 15.0641 58.5266 14.9038 58.4009 14.7855C58.2751 14.6673 58.1046 14.6007 57.9267 14.6005H37.0048V15.8578C37.0048 16.0298 36.9418 16.1966 36.8265 16.3302C36.7112 16.4638 36.5505 16.5561 36.3714 16.5916V16.5902ZM11.6569 11.5079C11.9256 10.4305 12.38 9.40166 13.0023 8.46222C13.0822 8.34104 13.1238 8.20102 13.1221 8.05849C13.1205 7.91597 13.0758 7.7768 12.9933 7.65724L11.921 6.10987L14.0254 4.13227L15.672 5.1392C15.7991 5.21713 15.9472 5.25933 16.0989 5.26085C16.2507 5.26236 16.3997 5.22311 16.5286 5.14773C17.5297 4.5632 18.6257 4.13614 19.7733 3.88338C19.9209 3.85101 20.0556 3.77976 20.1616 3.67799C20.2676 3.57622 20.3405 3.44815 20.3718 3.3088L20.7782 1.50044H23.752L24.1583 3.30524C24.1899 3.44461 24.263 3.57266 24.3691 3.67442C24.4752 3.77617 24.61 3.84742 24.7576 3.87982C25.9053 4.13261 27.0013 4.55993 28.0024 5.14489C28.1312 5.21994 28.2801 5.25893 28.4317 5.25729C28.5833 5.25565 28.7312 5.21346 28.8582 5.13564L30.5055 4.12871L32.6099 6.10631L31.5377 7.65369C31.4549 7.77319 31.4101 7.91237 31.4085 8.05494C31.4069 8.1975 31.4485 8.33755 31.5286 8.45867C32.1509 9.39938 32.6054 10.4294 32.874 11.5079C32.9086 11.6467 32.9845 11.7733 33.0929 11.8729C33.2014 11.9725 33.3378 12.041 33.4862 12.0704L35.4051 12.4523V15.2491L33.4846 15.6309C33.3361 15.66 33.1995 15.7284 33.091 15.8281C32.9826 15.9277 32.9067 16.0545 32.8725 16.1934C32.6039 17.272 32.1494 18.302 31.5271 19.2427C31.447 19.3638 31.4054 19.5038 31.407 19.6464C31.4086 19.789 31.4534 19.9281 31.5361 20.0476L32.6084 21.595L30.504 23.5726L28.8597 22.565C28.7327 22.4871 28.5847 22.4449 28.4331 22.4434C28.2815 22.4419 28.1326 22.4811 28.0039 22.5564C27.0027 23.1414 25.9068 23.5689 24.7592 23.8222C24.6115 23.8546 24.4767 23.9259 24.3706 24.0276C24.2645 24.1294 24.1914 24.2574 24.1599 24.3968L23.752 26.2009H20.7782L20.3718 24.3954C20.3403 24.2563 20.2672 24.1285 20.1612 24.027C20.0552 23.9255 19.9207 23.8545 19.7733 23.8222C18.6256 23.5694 17.5296 23.1421 16.5286 22.5572C16.3996 22.482 16.2505 22.443 16.0988 22.4447C15.9471 22.4463 15.7991 22.4885 15.672 22.5664L14.0254 23.574L11.921 21.5964L12.9933 20.0491C13.0758 19.9295 13.1205 19.7903 13.1221 19.6478C13.1238 19.5053 13.0822 19.3653 13.0023 19.2441C12.3798 18.3035 11.9254 17.2734 11.6569 16.1948C11.6224 16.0561 11.5465 15.9294 11.4381 15.8298C11.3296 15.7301 11.1932 15.6616 11.0448 15.6324L9.12351 15.2505V12.4523L11.0448 12.0704C11.1931 12.0409 11.3294 11.9723 11.4378 11.8727C11.5462 11.7731 11.6222 11.6466 11.6569 11.5079ZM41.4504 54.7435H22.5488V51.3301H41.4504V54.7435ZM52.5239 59.3714V62.5003H11.4761V59.3714C11.4761 58.5415 11.8269 57.7457 12.4513 57.1589C13.0757 56.5721 13.9225 56.2425 14.8056 56.2425H49.1952C50.0782 56.2425 50.9251 56.5721 51.5495 57.1589C52.1739 57.7457 52.5239 58.5415 52.5239 59.3714ZM5.24997 51.3287H20.9522V54.742H14.8048C13.4992 54.7436 12.2475 55.2316 11.3244 56.0992C10.4012 56.9668 9.88181 58.143 9.8802 59.37V63.2484C9.87991 63.347 9.90032 63.4447 9.94026 63.5358C9.98021 63.627 10.0389 63.7099 10.113 63.7797C10.1871 63.8495 10.2751 63.9049 10.372 63.9427C10.4689 63.9805 10.5728 64 10.6778 64H53.3215C53.5332 64 53.7363 63.921 53.886 63.7803C54.0357 63.6396 54.1198 63.4488 54.1198 63.2498V59.3714C54.1182 58.1444 53.5988 56.9682 52.6756 56.1006C51.7525 55.233 50.5008 54.745 49.1952 54.7435H43.0478V51.3301H58.7493C60.1414 51.3288 61.4762 50.8085 62.4606 49.8834C63.445 48.9583 63.9986 47.704 64 46.3957V14.4668C63.9984 13.1586 63.4447 11.9044 62.4603 10.9794C61.476 10.0543 60.1414 9.53395 58.7493 9.53244H33.8849C33.6747 9.03323 33.4284 8.54807 33.1479 8.08036L34.3019 6.41351C34.4009 6.26922 34.4442 6.09738 34.4247 5.92668C34.4051 5.75598 34.3238 5.59674 34.1944 5.47556L31.1752 2.63751C31.0457 2.5161 30.8757 2.44017 30.6938 2.42244C30.5118 2.40471 30.3289 2.44624 30.1756 2.54009L28.4049 3.62667C27.5267 3.15896 26.5911 2.79359 25.6188 2.53867L25.1814 0.594489C25.1437 0.426307 25.0456 0.275429 24.9035 0.16718C24.7615 0.0589314 24.5841 -9.80445e-05 24.4012 2.11207e-07H20.1312C19.9482 -0.000128829 19.7707 0.0588748 19.6286 0.167115C19.4864 0.275356 19.3881 0.426249 19.3503 0.594489L18.9129 2.53867C17.9408 2.79359 17.0055 3.15896 16.1275 3.62667L14.3538 2.54009C14.2005 2.44624 14.0176 2.40471 13.8356 2.42244C13.6537 2.44017 13.4837 2.5161 13.3542 2.63751L10.335 5.47556C10.2054 5.59705 10.1243 5.75675 10.1053 5.92782C10.0863 6.09889 10.1305 6.2709 10.2306 6.41493L11.3845 8.08178C11.1034 8.54919 10.8571 9.03439 10.6475 9.53387H5.24997C3.85795 9.53537 2.52342 10.0558 1.53918 10.9808C0.554948 11.9059 0.00140192 13.1601 0 14.4683V46.3972C0.00140192 47.7053 0.554948 48.9595 1.53918 49.8846C2.52342 50.8097 3.85795 51.33 5.24997 51.3316V51.3287ZM22.2658 8.86898C23.3144 8.86827 24.3396 9.15983 25.2118 9.70675C26.0839 10.2537 26.7639 11.0314 27.1657 11.9416C27.5675 12.8517 27.673 13.8534 27.4689 14.8199C27.2648 15.7865 26.7603 16.6744 26.0191 17.3714C25.2779 18.0684 24.3335 18.5432 23.3051 18.7357C22.2768 18.9282 21.2108 18.8297 20.242 18.4528C19.2732 18.0759 18.4452 17.4374 17.8625 16.6182C17.2799 15.7989 16.969 14.8357 16.969 13.8503C16.9704 12.5302 17.5287 11.2645 18.5217 10.3307C19.5146 9.39689 20.8611 8.87124 22.2658 8.86898ZM22.2658 20.3321C20.9016 20.3322 19.5681 19.9522 18.4337 19.2401C17.2993 18.5279 16.4152 17.5157 15.893 16.3313C15.3709 15.1469 15.2342 13.8436 15.5002 12.5862C15.7663 11.3288 16.4231 10.1738 17.3877 9.26725C18.3523 8.36069 19.5812 7.74329 20.9192 7.49313C22.2572 7.24297 23.644 7.37129 24.9044 7.86186C26.1648 8.35243 27.242 9.18322 27.9999 10.2492C28.7578 11.3151 29.1624 12.5683 29.1624 13.8503C29.1604 15.5687 28.4332 17.2162 27.1403 18.4313C25.8474 19.6464 24.0944 20.33 22.2658 20.3321Z" fill="#CAAD91"/>
</svg>
