<svg id="Layer_1" data-name="Layer 1" xmlns="http://www.w3.org/2000/svg" xmlns:xlink="http://www.w3.org/1999/xlink" viewBox="0 0 7.81 14"><defs><style>.cls-1{fill:url(#linear-gradient);}</style><linearGradient id="linear-gradient" x1="6.44" y1="1.4" x2="9.73" y2="14.53" gradientUnits="userSpaceOnUse"><stop offset="0" stop-color="#ef4d25"/><stop offset="0.92" stop-color="#f5ae2d"/><stop offset="0.99" stop-color="#f6b62e"/></linearGradient></defs><path class="cls-1" d="M11.9,11.33a6,6,0,0,1-1.47,1.94,3.93,3.93,0,0,1-2.23.93,2.88,2.88,0,0,1-2.43-1,4.13,4.13,0,0,1-.63-2.66c0-1.48,0-.34,0-1.82V3.5C5.2,1.75,8,1.45,8.65,3a1.67,1.67,0,0,1,.11.63c0,2.42.3,5.3-.3,6.16a.81.81,0,0,0,.9-.16,1.31,1.31,0,0,0,.43-1l0-1.93H11l0,2a2,2,0,0,1-.3,1.07,1.8,1.8,0,0,1-2,.72A2,2,0,0,1,7.18,8.62c0-2.66-.25-5.44.43-6h0A1.84,1.84,0,0,0,6.22,4.42V8.8a2.84,2.84,0,1,0,5.68,0V3.82a2.72,2.72,0,0,0-.33-1.34A3.32,3.32,0,0,0,8.42,1a3.6,3.6,0,0,1,2,1.5,3.82,3.82,0,0,1,.56,2V5.72l-1.16,0,0-2.27c0-2.58-4.09-3.4-5.36-.88A3.09,3.09,0,0,0,4.1,4v7a5,5,0,0,0,.11,1.28,3.18,3.18,0,0,0,.35.9,3.48,3.48,0,0,0,.43.6,3.09,3.09,0,0,0,.54.48,3.2,3.2,0,0,0,.61.37,3.48,3.48,0,0,0,.68.25,4.23,4.23,0,0,0,.71.13,4.45,4.45,0,0,0,.73,0A4.51,4.51,0,0,0,9,14.87a3.49,3.49,0,0,0,.69-.23,3.79,3.79,0,0,0,2.23-3.31Z" transform="translate(-4.1 -1)"/></svg>