<svg width="81" height="83" viewBox="0 0 81 83" fill="none" xmlns="http://www.w3.org/2000/svg">
<path d="M37.9149 20.6809H0V31.0213H37.9149V20.6809ZM6.89362 27.5745H3.44681V24.1277H6.89362V27.5745ZM13.7872 27.5745H10.3404V24.1277H13.7872V27.5745ZM20.6809 27.5745H17.234V24.1277H20.6809V27.5745ZM27.5745 27.5745H24.1277V24.1277H27.5745V27.5745ZM34.4681 27.5745H31.0213V24.1277H34.4681V27.5745Z" fill="url(#paint0_linear_565_23)"/>
<path d="M53.4253 27.5745C55.3289 27.5745 56.8721 26.0313 56.8721 24.1277C56.8721 22.2241 55.3289 20.6809 53.4253 20.6809C51.5217 20.6809 49.9785 22.2241 49.9785 24.1277C49.9785 26.0313 51.5217 27.5745 53.4253 27.5745Z" fill="url(#paint1_linear_565_23)"/>
<path d="M37.9151 43.0852H34.4683V46.532H37.9151V43.0852Z" fill="url(#paint2_linear_565_23)"/>
<path d="M41.3616 18.9576V32.7448C41.3616 33.2019 41.18 33.6402 40.8568 33.9634C40.5336 34.2866 40.0952 34.4682 39.6382 34.4682H13.7871V68.9363H49.9786V49.9788C49.9786 49.5218 50.1602 49.0834 50.4834 48.7602C50.8066 48.437 51.2449 48.2554 51.702 48.2554H65.4892V13.7874H13.7871V17.2342H39.6382C40.0952 17.2342 40.5336 17.4157 40.8568 17.7389C41.18 18.0621 41.3616 18.5005 41.3616 18.9576ZM17.2339 41.3618C17.2339 40.9047 17.4155 40.4664 17.7387 40.1432C18.0619 39.82 18.5002 39.6384 18.9573 39.6384H25.8509C26.308 39.6384 26.7464 39.82 27.0696 40.1432C27.3928 40.4664 27.5743 40.9047 27.5743 41.3618V48.2554C27.5743 48.7125 27.3928 49.1509 27.0696 49.4741C26.7464 49.7973 26.308 49.9788 25.8509 49.9788H18.9573C18.5002 49.9788 18.0619 49.7973 17.7387 49.4741C17.4155 49.1509 17.2339 48.7125 17.2339 48.2554V41.3618ZM17.2339 53.4257H20.6807V56.8725H17.2339V53.4257ZM41.3616 63.7661H17.2339V60.3193H41.3616V63.7661ZM41.3616 56.8725H24.1275V53.4257H41.3616V56.8725ZM41.3616 48.2554C41.3616 48.7125 41.18 49.1509 40.8568 49.4741C40.5336 49.7973 40.0952 49.9788 39.6382 49.9788H32.7446C32.2875 49.9788 31.8491 49.7973 31.5259 49.4741C31.2027 49.1509 31.0212 48.7125 31.0212 48.2554V41.3618C31.0212 40.9047 31.2027 40.4664 31.5259 40.1432C31.8491 39.82 32.2875 39.6384 32.7446 39.6384H39.6382C40.0952 39.6384 40.5336 39.82 40.8568 40.1432C41.18 40.4664 41.3616 40.9047 41.3616 41.3618V48.2554ZM44.8084 36.1916C44.809 34.7805 45.1562 33.3911 45.8194 32.1455C46.4826 30.9 47.4415 29.8363 48.6119 29.0481C47.6307 28.091 46.9571 26.8631 46.6771 25.5212C46.3971 24.1794 46.5236 22.7845 47.0402 21.5149C47.5569 20.2453 48.4403 19.1585 49.5777 18.3934C50.7151 17.6283 52.0547 17.2197 53.4254 17.2197C54.7961 17.2197 56.1358 17.6283 57.2731 18.3934C58.4105 19.1585 59.2939 20.2453 59.8106 21.5149C60.3272 22.7845 60.4537 24.1794 60.1737 25.5212C59.8938 26.8631 59.2201 28.091 58.2389 29.0481C59.4093 29.8363 60.3683 30.9 61.0315 32.1455C61.6947 33.3911 62.0418 34.7805 62.0424 36.1916V43.0852C62.0424 43.5423 61.8609 43.9807 61.5377 44.3039C61.2145 44.6271 60.7761 44.8086 60.319 44.8086H46.5318C46.0747 44.8086 45.6364 44.6271 45.3132 44.3039C44.99 43.9807 44.8084 43.5423 44.8084 43.0852V36.1916Z" fill="url(#paint3_linear_565_23)"/>
<path d="M58.5958 36.1915C58.5958 34.8202 58.0511 33.5052 57.0815 32.5356C56.1119 31.566 54.7968 31.0212 53.4256 31.0212C52.0544 31.0212 50.7393 31.566 49.7697 32.5356C48.8001 33.5052 48.2554 34.8202 48.2554 36.1915V41.3617H58.5958V36.1915Z" fill="url(#paint4_linear_565_23)"/>
<path d="M65.4892 0H13.7871V10.3404H65.4892V0ZM37.9148 6.89362H34.468V3.44681H37.9148V6.89362ZM44.8084 6.89362H41.3616V3.44681H44.8084V6.89362Z" fill="url(#paint5_linear_565_23)"/>
<path d="M53.4253 51.7021V75.8298H80.9998V51.7021H53.4253ZM56.8721 55.149H60.3189V58.5958H56.8721V55.149ZM77.553 72.383H56.8721V68.9362H77.553V72.383ZM77.553 65.4894H56.8721V62.0426H77.553V65.4894ZM77.553 58.5958H63.7657V55.149H77.553V58.5958Z" fill="url(#paint6_linear_565_23)"/>
<path d="M24.1275 43.0852H20.6807V46.532H24.1275V43.0852Z" fill="url(#paint7_linear_565_23)"/>
<path d="M49.9786 77.5533V72.3831H13.7871V82.7235H65.4892V79.2767H51.702C51.2449 79.2767 50.8066 79.0951 50.4834 78.7719C50.1602 78.4487 49.9786 78.0103 49.9786 77.5533ZM41.3616 79.2767H37.9148V75.8299H41.3616V79.2767Z" fill="url(#paint8_linear_565_23)"/>
<defs>
<linearGradient id="paint0_linear_565_23" x1="2.23444" y1="28.5634" x2="10.5622" y2="11.321" gradientUnits="userSpaceOnUse">
<stop stop-color="#F14D5C"/>
<stop offset="0.1309" stop-color="#F05454"/>
<stop offset="0.3346" stop-color="#ED663E"/>
<stop offset="0.3492" stop-color="#ED683C"/>
<stop offset="0.714" stop-color="#F3903F"/>
<stop offset="1" stop-color="#FDC70C"/>
</linearGradient>
<linearGradient id="paint1_linear_565_23" x1="50.3848" y1="25.9359" x2="56.4544" y2="22.5085" gradientUnits="userSpaceOnUse">
<stop stop-color="#F14D5C"/>
<stop offset="0.1309" stop-color="#F05454"/>
<stop offset="0.3346" stop-color="#ED663E"/>
<stop offset="0.3492" stop-color="#ED683C"/>
<stop offset="0.714" stop-color="#F3903F"/>
<stop offset="1" stop-color="#FDC70C"/>
</linearGradient>
<linearGradient id="paint2_linear_565_23" x1="34.6714" y1="45.7127" x2="37.7062" y2="43.999" gradientUnits="userSpaceOnUse">
<stop stop-color="#F14D5C"/>
<stop offset="0.1309" stop-color="#F05454"/>
<stop offset="0.3346" stop-color="#ED663E"/>
<stop offset="0.3492" stop-color="#ED683C"/>
<stop offset="0.714" stop-color="#F3903F"/>
<stop offset="1" stop-color="#FDC70C"/>
</linearGradient>
<linearGradient id="paint3_linear_565_23" x1="16.8341" y1="55.8271" x2="63.7294" y2="31.0018" gradientUnits="userSpaceOnUse">
<stop stop-color="#F14D5C"/>
<stop offset="0.1309" stop-color="#F05454"/>
<stop offset="0.3346" stop-color="#ED663E"/>
<stop offset="0.3492" stop-color="#ED683C"/>
<stop offset="0.714" stop-color="#F3903F"/>
<stop offset="1" stop-color="#FDC70C"/>
</linearGradient>
<linearGradient id="paint4_linear_565_23" x1="48.8648" y1="38.9037" x2="57.9692" y2="33.7627" gradientUnits="userSpaceOnUse">
<stop stop-color="#F14D5C"/>
<stop offset="0.1309" stop-color="#F05454"/>
<stop offset="0.3346" stop-color="#ED663E"/>
<stop offset="0.3492" stop-color="#ED683C"/>
<stop offset="0.714" stop-color="#F3903F"/>
<stop offset="1" stop-color="#FDC70C"/>
</linearGradient>
<linearGradient id="paint5_linear_565_23" x1="16.8341" y1="7.88246" x2="23.5262" y2="-11.0118" gradientUnits="userSpaceOnUse">
<stop stop-color="#F14D5C"/>
<stop offset="0.1309" stop-color="#F05454"/>
<stop offset="0.3346" stop-color="#ED663E"/>
<stop offset="0.3492" stop-color="#ED683C"/>
<stop offset="0.714" stop-color="#F3903F"/>
<stop offset="1" stop-color="#FDC70C"/>
</linearGradient>
<linearGradient id="paint6_linear_565_23" x1="55.0503" y1="70.0946" x2="77.6559" y2="55.5063" gradientUnits="userSpaceOnUse">
<stop stop-color="#F14D5C"/>
<stop offset="0.1309" stop-color="#F05454"/>
<stop offset="0.3346" stop-color="#ED663E"/>
<stop offset="0.3492" stop-color="#ED683C"/>
<stop offset="0.714" stop-color="#F3903F"/>
<stop offset="1" stop-color="#FDC70C"/>
</linearGradient>
<linearGradient id="paint7_linear_565_23" x1="20.8838" y1="45.7127" x2="23.9186" y2="43.999" gradientUnits="userSpaceOnUse">
<stop stop-color="#F14D5C"/>
<stop offset="0.1309" stop-color="#F05454"/>
<stop offset="0.3346" stop-color="#ED663E"/>
<stop offset="0.3492" stop-color="#ED683C"/>
<stop offset="0.714" stop-color="#F3903F"/>
<stop offset="1" stop-color="#FDC70C"/>
</linearGradient>
<linearGradient id="paint8_linear_565_23" x1="16.8341" y1="80.2655" x2="23.5262" y2="61.3712" gradientUnits="userSpaceOnUse">
<stop stop-color="#F14D5C"/>
<stop offset="0.1309" stop-color="#F05454"/>
<stop offset="0.3346" stop-color="#ED663E"/>
<stop offset="0.3492" stop-color="#ED683C"/>
<stop offset="0.714" stop-color="#F3903F"/>
<stop offset="1" stop-color="#FDC70C"/>
</linearGradient>
</defs>
</svg>
